<?xml version="1.0" encoding="utf-8"?>
<!-- Generator: Adobe Illustrator 24.2.0, SVG Export Plug-In . SVG Version: 6.00 Build 0)  -->
<svg version="1.1" id="Camada_1" xmlns="http://www.w3.org/2000/svg" xmlns:xlink="http://www.w3.org/1999/xlink" x="0px" y="0px"
	 viewBox="0 0 228.1 161.1" style="enable-background:new 0 0 228.1 161.1;" xml:space="preserve">
<style type="text/css">
	.st0{fill:#FFAA01;}
	.st1{fill:#FFFFFF;}
</style>
<g>
	<path class="st0" d="M52.8,31.4c-0.2,0-0.3-0.1-0.4-0.1c-0.1-0.1-0.2-0.1-0.3-0.3c-0.1-0.2-0.2-0.4-0.3-0.6
		c-0.1-0.2-0.2-0.5-0.2-0.6c0-0.2,0-0.5,0.1-0.8c0-0.3,0.1-0.5,0.2-0.8c0.1-0.2,0.2-0.3,0.4-0.4c0.2-0.1,0.4-0.2,0.7-0.2
		c0.2,0,0.5-0.1,0.8-0.2c0.2,0,0.5-0.1,0.7-0.2c0.3-0.1,0.6-0.4,0.8-0.7s0.3-0.6,0.3-1c0-0.3-0.1-0.5-0.2-0.8
		c-0.1-0.3-0.2-0.6-0.4-1c-0.1-0.3-0.3-0.6-0.5-1c-0.2-0.4-0.4-0.7-0.5-1.1c-0.2-0.4-0.4-0.7-0.5-1.1s-0.3-0.7-0.5-1
		c-0.2-0.4-0.3-0.8-0.4-1.1c-0.1-0.4-0.2-0.8-0.2-1.3c0-0.7,0.2-1.3,0.5-2c0.4-0.6,0.9-1.1,1.5-1.5c0.4-0.3,1-0.5,1.6-0.6
		c0.6-0.1,1.2-0.2,1.7-0.2c0.3,0,0.6,0,0.8,0c0.3,0,0.5,0.1,0.6,0.1c0.1,0,0.2,0.1,0.4,0.2c0.1,0.1,0.2,0.3,0.3,0.4
		c0.1,0.2,0.2,0.3,0.2,0.5c0.1,0.2,0.1,0.3,0.1,0.4c0,0.1,0,0.2,0,0.4c0,0.2,0,0.3-0.1,0.5c0,0.2-0.1,0.3-0.1,0.5
		c0,0.1-0.1,0.2-0.2,0.2c-0.2,0.2-0.5,0.3-0.9,0.3c-0.3,0-0.6,0-0.9,0.1c-0.4,0.1-0.7,0.2-0.9,0.4c-0.2,0.1-0.3,0.4-0.3,0.7
		c0,0.2,0.1,0.5,0.2,0.8c0.1,0.3,0.3,0.7,0.5,1c0.2,0.3,0.4,0.6,0.6,0.9c0.2,0.3,0.4,0.7,0.5,1c0.2,0.3,0.3,0.7,0.5,0.9
		c0.1,0.3,0.2,0.5,0.3,0.8c0.2,0.4,0.3,0.8,0.4,1.3c0.1,0.5,0.1,1,0.1,1.7c0,0.8-0.2,1.5-0.5,2.2c-0.3,0.7-0.8,1.3-1.5,1.8
		c-0.6,0.5-1.2,0.8-1.9,0.9c-0.7,0.2-1.4,0.3-2.1,0.3c-0.2,0-0.5,0-0.7,0C53.2,31.5,53,31.5,52.8,31.4L52.8,31.4z"/>
	<path class="st0" d="M66.3,25.1c-0.2,0-0.4,0-0.6,0c-0.1,0-0.2,0-0.3,0c-0.1,0-0.2,0-0.2,0c0,0-0.1,0-0.1,0.1
		c-0.2,0-0.2,0.2-0.3,0.3l-0.4,1.7c0,0.1-0.1,0.2-0.2,0.3s-0.2,0.1-0.4,0.2c-0.2,0-0.4,0.1-0.7,0.1c-0.3,0-0.6,0-1,0
		c-0.5,0-0.8-0.2-0.9-0.4l-0.5-1.2c0-0.1-0.1-0.2-0.1-0.3c0-0.1,0-0.2,0-0.3l2.6-8.4c0-0.1,0.1-0.2,0.2-0.4c0.1-0.1,0.3-0.2,0.4-0.2
		c0.2,0,0.5-0.1,0.9-0.2c0.4-0.1,0.9-0.1,1.4-0.2c0.5-0.1,0.9-0.1,1.3-0.2c0.4-0.1,0.7-0.1,0.8-0.1c0.1,0,0.2,0,0.4,0.1
		c0.1,0,0.2,0.2,0.2,0.3l2.9,10c0,0.1,0,0.2,0.1,0.3c0,0.1,0,0.2,0,0.2c0,0.2,0,0.3-0.1,0.5c-0.1,0.2-0.2,0.3-0.3,0.5
		c-0.2,0.1-0.3,0.2-0.5,0.3c-0.2,0.1-0.3,0.1-0.5,0.1c-0.3,0-0.5,0-0.8-0.1c-0.2,0-0.5-0.1-0.8-0.1c-0.3,0-0.6-0.2-0.7-0.6l-0.6-1.7
		c-0.1-0.3-0.2-0.5-0.4-0.5C67.1,25.2,66.7,25.1,66.3,25.1L66.3,25.1z M65.3,21.8c0,0.3,0.1,0.5,0.3,0.5c0.2,0.1,0.4,0.1,0.6,0.1
		c0.4,0,0.7,0,0.9-0.1c0.2-0.1,0.3-0.3,0.2-0.6c0-0.1,0-0.2,0-0.3c0-0.1,0-0.2-0.1-0.4c0-0.2-0.1-0.3-0.1-0.4S67,20.3,67,20.2
		c-0.1-0.1-0.1-0.2-0.2-0.2c-0.1,0-0.2-0.1-0.3-0.1c-0.2,0-0.5,0.1-0.6,0.2c-0.2,0.1-0.2,0.3-0.3,0.5c0,0.2-0.1,0.4-0.1,0.6
		C65.3,21.5,65.3,21.6,65.3,21.8z M62,13.7c0-0.2,0-0.3,0.1-0.5c0.1-0.2,0.2-0.3,0.3-0.4c0.2-0.2,0.6-0.5,0.9-0.6
		c0.3-0.1,0.7-0.2,1-0.2c0.3,0,0.6,0.1,0.9,0.2c0.3,0.1,0.6,0.2,0.8,0.3c0.3,0.1,0.5,0.2,0.8,0.3c0.2,0.1,0.5,0.2,0.7,0.2
		c0.2,0,0.4,0,0.5-0.1c0.1-0.1,0.2-0.2,0.4-0.3c0.1-0.1,0.2-0.2,0.3-0.3c0.1-0.1,0.2-0.1,0.4-0.1c0.1,0,0.2,0,0.4,0.1
		s0.2,0.1,0.4,0.2c0.1,0.1,0.2,0.2,0.3,0.3c0.1,0.1,0.1,0.2,0.1,0.4s0,0.3-0.1,0.4c-0.1,0.2-0.1,0.3-0.2,0.4
		c-0.1,0.1-0.2,0.3-0.3,0.4c-0.1,0.1-0.2,0.2-0.3,0.3c-0.4,0.3-0.8,0.5-1.2,0.5c-0.4,0-0.8,0-1.1-0.2c-0.4-0.1-0.7-0.2-1.1-0.4
		c-0.2-0.1-0.4-0.1-0.6-0.2s-0.5-0.1-0.7-0.1s-0.3,0-0.5,0.1c-0.1,0.1-0.2,0.2-0.3,0.3c-0.1,0.1-0.2,0.2-0.3,0.3
		c-0.1,0.1-0.2,0.1-0.4,0.1c-0.1,0-0.3,0-0.4-0.1c-0.1-0.1-0.3-0.2-0.4-0.4c-0.1-0.1-0.2-0.3-0.3-0.5C62.1,14,62,13.9,62,13.7z"/>
	<path class="st0" d="M76.7,28.6c-0.8,0-1.5-0.2-2.2-0.5c-0.6-0.3-1.1-0.7-1.6-1.2c-0.5-0.5-0.8-1.1-1.1-1.8
		c-0.2-0.7-0.4-1.4-0.5-2.2c-0.1-1-0.1-2,0.2-2.9c0.2-0.9,0.5-1.6,1-2.2c0.5-0.6,1.1-1.1,1.8-1.4c0.7-0.3,1.5-0.5,2.4-0.5
		c1,0,1.8,0.1,2.5,0.4c0.7,0.3,1.3,0.7,1.7,1.2c0.5,0.5,0.8,1.2,1,1.9s0.3,1.6,0.3,2.5c0,1.1-0.1,2-0.3,2.8c-0.2,0.8-0.5,1.5-1,2.1
		c-0.5,0.6-1.1,1-1.8,1.3C78.5,28.5,77.7,28.6,76.7,28.6L76.7,28.6z M74.9,22c0,0.3,0,0.6,0.1,0.9c0.1,0.3,0.2,0.6,0.4,0.9
		c0.2,0.3,0.4,0.5,0.6,0.7c0.3,0.2,0.6,0.3,0.9,0.3c0.3,0,0.6-0.1,0.8-0.3c0.2-0.2,0.5-0.4,0.6-0.7c0.2-0.3,0.3-0.5,0.3-0.9
		c0.1-0.3,0.1-0.6,0.1-0.9c0-0.3,0-0.6-0.1-0.9c-0.1-0.3-0.2-0.6-0.3-0.9c-0.1-0.3-0.3-0.5-0.6-0.6c-0.2-0.2-0.5-0.2-0.8-0.2
		c-0.4,0-0.7,0.1-0.9,0.2c-0.2,0.2-0.5,0.4-0.6,0.6c-0.2,0.2-0.3,0.5-0.4,0.8C74.9,21.4,74.9,21.7,74.9,22L74.9,22z"/>
	<path class="st0" d="M85.3,30c0-0.2,0-0.4,0-0.5c0-0.2,0.1-0.3,0.2-0.6c0.1-0.3,0.3-0.5,0.6-0.6c0.2-0.1,0.4-0.2,0.6-0.2
		c0.2-0.1,0.4-0.1,0.6-0.2c0.7-0.2,1-0.6,1-1.1c0-0.9,0-1.8,0-2.7c0-0.9,0-1.9-0.1-2.8c0-1,0-2,0-3c0-1,0-2.1,0-3.2
		c0-0.2,0-0.3,0-0.4c0-0.1,0.1-0.2,0.2-0.3c0.1-0.1,0.2-0.1,0.4-0.2c0.2-0.1,0.4-0.2,0.6-0.2c0.2-0.1,0.4-0.2,0.5-0.2
		c0.1-0.1,0.2-0.1,0.3-0.1c0.1,0,0.2,0,0.3-0.1c0.1,0,0.2,0,0.3,0c0.1,0,0.2,0,0.4,0c0.1,0,0.3,0.1,0.6,0.2c0.2,0.1,0.4,0.2,0.6,0.2
		c0.1,0.1,0.2,0.2,0.3,0.2c0.1,0.1,0.1,0.2,0.2,0.3c0,0.1,0,0.2,0,0.4c0,0.1,0,0.4,0,1c0,0.6,0,1.2,0,2.1s0,1.7-0.1,2.7
		c0,1,0,1.9,0,2.9c0,0.9,0,1.8,0,2.6c0,0.8,0,1.4,0,1.9c0,0.2,0,0.3,0,0.4c0,0.1-0.1,0.3-0.1,0.5c0,0.2-0.1,0.3-0.2,0.5
		c-0.1,0.2-0.3,0.4-0.5,0.7c-0.5,0.7-1.1,1.1-1.9,1.1c-0.3,0-0.6,0.1-0.9,0.1c-0.3,0-0.7,0.1-1,0.1c-0.3,0-0.6,0-0.9,0.1
		c-0.2,0-0.5,0-0.6,0c-0.2,0-0.4-0.1-0.6-0.2c-0.1-0.1-0.3-0.3-0.4-0.5c-0.1-0.1-0.1-0.2-0.1-0.4C85.3,30.3,85.3,30.2,85.3,30
		L85.3,30z"/>
	<path class="st0" d="M98.6,27.9c-0.8,0-1.5-0.1-2.1-0.4c-0.6-0.3-1.1-0.7-1.5-1.2c-0.4-0.5-0.7-1.1-1-1.7c-0.2-0.7-0.4-1.4-0.5-2.1
		c-0.1-1,0-1.9,0.2-2.7c0.2-0.8,0.5-1.6,1-2.1c0.5-0.6,1-1.1,1.7-1.4c0.7-0.3,1.5-0.5,2.3-0.5c1,0,1.8,0.1,2.5,0.4
		c0.7,0.3,1.2,0.7,1.6,1.1c0.4,0.5,0.7,1.1,0.9,1.8c0.2,0.7,0.3,1.5,0.3,2.4c0,1-0.1,1.9-0.3,2.7s-0.5,1.5-1,2c-0.5,0.5-1,1-1.7,1.3
		C100.4,27.8,99.6,27.9,98.6,27.9L98.6,27.9z M96.9,21.6c0,0.3,0,0.6,0.1,0.9c0.1,0.3,0.2,0.6,0.3,0.9c0.2,0.2,0.4,0.5,0.6,0.6
		c0.2,0.2,0.5,0.3,0.9,0.3c0.3,0,0.6-0.1,0.8-0.3c0.2-0.2,0.4-0.4,0.6-0.6c0.1-0.2,0.2-0.5,0.3-0.8c0.1-0.3,0.1-0.6,0.1-0.9
		s0-0.6-0.1-0.9c-0.1-0.3-0.2-0.6-0.3-0.9c-0.2-0.2-0.3-0.5-0.6-0.6c-0.2-0.2-0.5-0.2-0.8-0.2c-0.4,0-0.7,0.1-0.9,0.2
		c-0.2,0.2-0.4,0.3-0.6,0.6c-0.2,0.2-0.3,0.5-0.3,0.8C96.9,21,96.9,21.3,96.9,21.6L96.9,21.6z"/>
	<path class="st0" d="M109.3,24.6c-0.2,0-0.4,0-0.5,0c-0.1,0-0.2,0-0.3,0c-0.1,0-0.2,0-0.2,0c0,0-0.1,0-0.1,0
		c-0.2,0.1-0.2,0.2-0.2,0.3l-0.4,1.6c0,0.1-0.1,0.2-0.2,0.2c-0.1,0.1-0.2,0.1-0.4,0.2c-0.2,0-0.4,0.1-0.7,0.1s-0.6,0-1,0
		c-0.5,0-0.7-0.1-0.9-0.4l-0.5-1.2c0-0.1-0.1-0.2-0.1-0.3c0-0.1,0-0.2,0-0.3l2.5-8.1c0-0.1,0.1-0.2,0.3-0.3c0.1-0.1,0.2-0.2,0.4-0.2
		c0.2,0,0.5-0.1,0.9-0.2c0.4-0.1,0.9-0.1,1.4-0.2c0.5-0.1,0.9-0.1,1.3-0.2c0.4-0.1,0.6-0.1,0.7-0.1c0.1,0,0.2,0,0.4,0.1
		c0.1,0.1,0.2,0.2,0.2,0.3l2.8,9.7c0,0.1,0,0.2,0.1,0.3c0,0.1,0,0.2,0,0.2c0,0.2,0,0.3-0.1,0.5c-0.1,0.2-0.2,0.3-0.3,0.5
		c-0.1,0.1-0.3,0.2-0.5,0.3c-0.2,0.1-0.3,0.1-0.5,0.1c-0.2,0-0.5,0-0.7-0.1c-0.2,0-0.5-0.1-0.8-0.1c-0.3,0-0.5-0.2-0.7-0.5l-0.5-1.6
		c-0.1-0.3-0.2-0.5-0.4-0.5C110,24.6,109.7,24.6,109.3,24.6L109.3,24.6z M108.3,21.4c0,0.3,0.1,0.5,0.3,0.5c0.2,0,0.4,0.1,0.6,0.1
		c0.4,0,0.7,0,0.8-0.1c0.2-0.1,0.2-0.2,0.2-0.5c0-0.1,0-0.2,0-0.3c0-0.1,0-0.2-0.1-0.4c0-0.1,0-0.2-0.1-0.4s-0.1-0.2-0.1-0.4
		c0-0.1-0.1-0.2-0.2-0.2c-0.1,0-0.2-0.1-0.3-0.1c-0.3,0-0.5,0.1-0.6,0.2c-0.1,0.1-0.2,0.3-0.3,0.5c0,0.2-0.1,0.4-0.1,0.6
		C108.3,21,108.3,21.2,108.3,21.4L108.3,21.4z M105.1,13.6c0-0.2,0-0.3,0.2-0.5c0.1-0.1,0.2-0.3,0.3-0.4c0.2-0.2,0.5-0.4,0.9-0.6
		c0.3-0.1,0.7-0.2,1-0.2c0.3,0,0.6,0.1,0.8,0.2c0.3,0.1,0.5,0.2,0.8,0.3c0.2,0.1,0.5,0.2,0.7,0.3c0.2,0.1,0.5,0.1,0.7,0.1
		c0.2,0,0.4,0,0.5-0.1c0.1-0.1,0.2-0.2,0.3-0.3c0.1-0.1,0.2-0.2,0.3-0.3c0.1-0.1,0.2-0.1,0.4-0.1s0.2,0,0.4,0.1
		c0.1,0,0.2,0.1,0.3,0.2c0.1,0.1,0.2,0.2,0.2,0.3c0.1,0.1,0.1,0.2,0.1,0.4c0,0.1,0,0.3-0.1,0.4c-0.1,0.1-0.1,0.3-0.2,0.4
		c-0.1,0.1-0.2,0.2-0.3,0.4c-0.1,0.1-0.2,0.2-0.3,0.3c-0.3,0.3-0.7,0.4-1.2,0.4c-0.4,0-0.7,0-1.1-0.2c-0.3-0.1-0.7-0.2-1-0.4
		c-0.2-0.1-0.4-0.1-0.6-0.2c-0.2-0.1-0.5-0.1-0.6-0.1c-0.2,0-0.3,0-0.5,0.2c-0.1,0.1-0.2,0.2-0.3,0.3c-0.1,0.1-0.2,0.2-0.3,0.3
		c-0.1,0.1-0.2,0.1-0.4,0.1c-0.1,0-0.3,0-0.4-0.1c-0.2-0.1-0.3-0.2-0.4-0.3c-0.1-0.1-0.2-0.3-0.3-0.5
		C105.2,13.9,105.1,13.7,105.1,13.6L105.1,13.6z"/>
	<path class="st0" d="M119.2,27.9c-0.8,0-1.5-0.1-2.1-0.4c-0.6-0.3-1.1-0.7-1.5-1.2c-0.4-0.5-0.8-1.1-1-1.7
		c-0.2-0.7-0.4-1.4-0.5-2.1c-0.1-1-0.1-1.9,0.1-2.7c0.2-0.8,0.5-1.6,1-2.1c0.5-0.6,1-1.1,1.7-1.4c0.7-0.3,1.5-0.5,2.3-0.5
		c0.9,0,1.8,0.1,2.4,0.4c0.7,0.3,1.2,0.7,1.7,1.1c0.4,0.5,0.7,1.1,0.9,1.8c0.2,0.7,0.3,1.5,0.3,2.4c0,1-0.1,1.9-0.3,2.7
		s-0.5,1.5-1,2c-0.4,0.5-1,1-1.7,1.3C121,27.8,120.2,27.9,119.2,27.9L119.2,27.9z M117.5,21.6c0,0.3,0,0.6,0.1,0.9
		c0.1,0.3,0.2,0.6,0.4,0.9c0.2,0.2,0.4,0.5,0.6,0.6c0.2,0.2,0.5,0.3,0.9,0.3c0.3,0,0.6-0.1,0.8-0.3c0.2-0.2,0.4-0.4,0.6-0.6
		c0.2-0.2,0.3-0.5,0.3-0.8c0.1-0.3,0.1-0.6,0.1-0.9s0-0.6-0.1-0.9c-0.1-0.3-0.2-0.6-0.3-0.9c-0.1-0.2-0.3-0.5-0.6-0.6
		c-0.2-0.2-0.5-0.2-0.8-0.2c-0.3,0-0.7,0.1-0.9,0.2c-0.2,0.2-0.5,0.3-0.6,0.6s-0.3,0.5-0.4,0.8C117.5,21,117.5,21.3,117.5,21.6z"/>
	<path class="st0" d="M128.5,25.5c0-0.4,0-0.7,0.1-0.9c0-0.2,0.2-0.4,0.4-0.6l5.2-4.3c0.2-0.2,0.3-0.4,0.3-0.7
		c0-0.2-0.1-0.3-0.2-0.5c-0.1-0.2-0.3-0.2-0.5-0.2c-0.1,0-0.4,0-0.7,0c-0.4,0-0.8,0.1-1.2,0.1s-0.8,0-1.1,0.1c-0.4,0-0.5,0-0.6,0
		c-0.2,0-0.3,0-0.4,0c-0.1,0-0.2,0-0.2-0.1c-0.1-0.1-0.2-0.2-0.2-0.3c-0.1-0.1-0.2-0.4-0.3-0.6c-0.1-0.3-0.2-0.5-0.3-0.6
		c0-0.1,0-0.2,0-0.4c0-0.1,0-0.2,0.1-0.4c0-0.2,0.1-0.4,0.3-0.6c0.1-0.2,0.3-0.4,0.5-0.6c0.2-0.2,0.5-0.3,0.8-0.3
		c0.3,0,0.7-0.1,1.1-0.1c0.4,0,0.9-0.1,1.3-0.1c0.5,0,0.9,0,1.3,0s0.8,0,1.1,0c0.3,0,0.6,0,0.9,0.1c0.3,0.1,0.5,0.1,0.8,0.2
		c0.2,0.1,0.5,0.2,0.7,0.4c0.2,0.2,0.5,0.4,0.8,0.6c0.2,0.2,0.4,0.5,0.6,0.7c0.2,0.2,0.3,0.4,0.4,0.6s0.2,0.4,0.2,0.7
		c0,0.2,0,0.5,0,0.8c0,0.5-0.1,1.1-0.3,1.6c-0.2,0.5-0.6,1-1.3,1.5l-2.6,1.9c-0.1,0-0.1,0.1-0.2,0.2c0,0.1-0.1,0.1-0.1,0.2
		c0,0.2,0.1,0.3,0.4,0.3l3.2,0.1c0.1,0,0.3,0.1,0.4,0.2c0.1,0.1,0.3,0.2,0.4,0.4c0.1,0.2,0.2,0.3,0.3,0.5c0.1,0.2,0.1,0.3,0.1,0.5
		c0,0,0,0.1,0,0.3c0,0.1-0.1,0.3-0.1,0.4s-0.1,0.3-0.2,0.5c0,0.2-0.1,0.3-0.2,0.5c-0.1,0.2-0.2,0.4-0.3,0.5
		c-0.1,0.2-0.3,0.2-0.5,0.3c-0.1,0-0.3,0-0.7,0s-0.8,0-1.3,0c-0.5,0-1,0-1.6,0c-0.6,0-1.2,0-1.7,0c-0.6,0-1.1,0-1.6,0
		c-0.5,0-0.9,0-1.1,0c-0.4,0-0.7-0.1-0.9-0.4c-0.2-0.2-0.5-0.5-0.6-0.8c-0.2-0.3-0.2-0.6-0.3-0.9C128.5,25.9,128.5,25.7,128.5,25.5
		L128.5,25.5z"/>
	<path class="st0" d="M146.9,29.5c-0.5,0-0.9,0-1.4,0c-0.5,0-0.9,0-1.4-0.1c-0.4-0.1-0.8-0.2-1.2-0.4c-0.4-0.2-0.7-0.4-1-0.7
		c-0.6-0.7-1.1-1.4-1.3-2.1c-0.3-0.8-0.4-1.6-0.5-2.6c-0.1-1-0.1-1.8-0.1-2.5c0-0.7,0-1.3,0.1-1.8c0.1-0.5,0.2-1,0.4-1.4
		c0.2-0.4,0.4-0.8,0.7-1.1c0.5-0.6,1-1,1.6-1.2c0.6-0.2,1.5-0.4,2.6-0.5c1.3-0.1,2.3,0,3.1,0.1s1.4,0.4,1.8,0.7c0.4,0.3,0.7,0.6,1,1
		c0.3,0.4,0.5,0.9,0.7,1.4c0.2,0.5,0.3,1,0.5,1.6c0.1,0.6,0.2,1.2,0.2,1.8c0,0.6,0,1.1,0,1.7c0,0.5,0,1.1-0.2,1.6
		c-0.1,0.5-0.3,1-0.5,1.5c-0.2,0.5-0.5,0.9-0.9,1.4c-0.5,0.6-1.1,1-1.9,1.2C148.5,29.3,147.7,29.5,146.9,29.5L146.9,29.5z
		 M144.4,22.2c0,0.4,0.1,0.8,0.1,1.2s0.2,0.9,0.3,1.3c0.2,0.4,0.4,0.7,0.7,1c0.3,0.3,0.7,0.4,1.2,0.4c0.4,0,0.7-0.2,1-0.4
		c0.2-0.2,0.4-0.5,0.5-0.9c0.1-0.4,0.2-0.8,0.2-1.3c0-0.5,0-0.9,0-1.4c0-0.5-0.1-1-0.2-1.4c-0.1-0.4-0.2-0.8-0.4-1.1
		c-0.2-0.3-0.4-0.5-0.7-0.7c-0.3-0.2-0.7-0.2-1.1-0.2c-0.4,0-0.7,0.1-1,0.3c-0.2,0.2-0.4,0.4-0.5,0.7c-0.1,0.3-0.2,0.7-0.2,1.1
		C144.4,21.1,144.4,21.6,144.4,22.2L144.4,22.2z"/>
	<path class="st1" d="M187.5,69.8c-0.9,0-1.6,0-2.2,0s-1,0-1.4,0.1c-0.3,0-0.6,0.1-0.8,0.1c-0.2,0.1-0.4,0.1-0.5,0.2
		c-0.6,0.2-1,0.7-1,1.2l-1.5,6.5c-0.1,0.5-0.3,0.8-0.7,1.1c-0.3,0.3-0.9,0.5-1.6,0.6c-0.7,0.1-1.6,0.2-2.7,0.2c-1.1,0-2.4,0-4,0
		c-1.8,0-3-0.6-3.5-1.7l-2.1-4.7c-0.2-0.4-0.3-0.8-0.4-1.2c-0.1-0.4,0-0.8,0.1-1.3l10.3-32.6c0.2-0.5,0.5-1,1-1.4
		c0.5-0.4,1-0.7,1.6-0.8c0.7-0.2,1.9-0.4,3.7-0.7c1.7-0.3,3.5-0.6,5.4-0.9c1.9-0.3,3.6-0.6,5.1-0.8c1.6-0.2,2.6-0.4,3-0.4
		c0.5,0,0.9,0.1,1.4,0.3c0.5,0.2,0.8,0.6,1,1.2l11.2,39c0.2,0.5,0.2,0.8,0.3,1.1c0.1,0.3,0.1,0.6,0.1,0.8c0,0.6-0.2,1.3-0.5,1.9
		c-0.3,0.7-0.8,1.3-1.4,1.8c-0.6,0.5-1.2,1-1.9,1.3c-0.7,0.3-1.4,0.5-2.1,0.5c-1,0-2-0.1-3-0.2c-1-0.2-2-0.3-3.1-0.5
		c-1.3-0.1-2.2-0.9-2.6-2.3l-2.1-6.4c-0.4-1.2-0.9-1.9-1.7-2.1C190.4,69.9,189.2,69.8,187.5,69.8L187.5,69.8z M17.4,90
		c-0.6-0.1-1.1-0.2-1.5-0.4c-0.3-0.2-0.6-0.5-0.9-0.9c-0.4-0.6-0.7-1.4-1.1-2.2c-0.4-0.8-0.5-1.5-0.5-2c0-0.8,0.1-1.8,0.2-2.7
		c0.2-1,0.4-1.9,0.7-2.6c0.2-0.6,0.7-1,1.4-1.3c0.7-0.3,1.4-0.5,2.2-0.7c0.8-0.2,1.6-0.4,2.5-0.5c0.9-0.1,1.8-0.4,2.5-0.7
		c1.1-0.5,2-1.2,2.7-2.2c0.7-1,1-2.1,1-3.3c0-0.9-0.2-1.8-0.5-2.8s-0.8-2-1.3-3.3c-0.5-1-0.9-2.1-1.5-3.4c-0.6-1.2-1.2-2.4-1.8-3.7
		c-0.6-1.3-1.2-2.5-1.7-3.7c-0.5-1.2-1.1-2.3-1.5-3.4c-0.6-1.3-1.1-2.6-1.4-3.8c-0.3-1.2-0.5-2.7-0.5-4.4c0-2.3,0.6-4.6,1.8-6.7
		c1.2-2.1,2.9-3.8,5.1-5.1c1.5-0.9,3.3-1.6,5.4-2c2.1-0.4,4-0.6,5.8-0.6c1,0,1.9,0.1,2.8,0.2s1.6,0.2,2.1,0.3
		c0.4,0.1,0.8,0.4,1.2,0.8c0.4,0.4,0.7,0.9,1.1,1.5c0.4,0.6,0.6,1.1,0.8,1.7s0.3,1.1,0.3,1.5c0,0.3,0,0.7-0.1,1.3
		c-0.1,0.5-0.2,1.1-0.3,1.6c-0.1,0.5-0.3,1-0.4,1.5c-0.2,0.4-0.4,0.7-0.6,0.9c-0.9,0.6-1.8,0.9-3,0.9s-2.1,0.1-3,0.3
		c-1.3,0.3-2.3,0.7-2.9,1.2c-0.6,0.5-0.9,1.3-0.9,2.4c0,0.8,0.2,1.7,0.7,2.8c0.5,1.1,1.1,2.2,1.8,3.4c0.6,1,1.3,2.1,1.9,3.3
		c0.6,1.1,1.2,2.3,1.8,3.4s1.1,2.1,1.6,3.1c0.5,1,0.8,1.9,1.1,2.7c0.5,1.4,0.9,2.9,1.2,4.4c0.3,1.5,0.5,3.5,0.5,5.8
		c0,2.6-0.6,5.1-1.7,7.5c-1.1,2.4-2.8,4.4-5,6.2c-1.8,1.5-4,2.6-6.3,3.2c-2.4,0.6-4.7,0.9-7.1,0.9c-0.8,0-1.6,0-2.3-0.1
		C18.9,90.2,18.1,90.1,17.4,90L17.4,90z M183.6,56.7c0,1.1,0.4,1.8,1.1,2c0.7,0.2,1.5,0.3,2.3,0.3c1.6,0,2.7-0.2,3.4-0.5
		c0.7-0.3,1-1,0.8-2.1c0-0.3,0-0.7-0.1-1.2c-0.1-0.5-0.2-1-0.3-1.5c-0.1-0.5-0.2-1.1-0.4-1.6c-0.1-0.5-0.3-1-0.4-1.5
		c-0.2-0.5-0.5-0.8-0.9-1c-0.4-0.2-0.8-0.3-1.1-0.3c-1,0-1.8,0.3-2.4,0.8c-0.6,0.5-1,1.2-1.2,2c-0.2,0.8-0.4,1.6-0.5,2.4
		C183.7,55.5,183.6,56.2,183.6,56.7L183.6,56.7z M143.3,63.4c-1.3,0-2.2,0.2-2.9,0.7c-0.6,0.5-0.9,1.3-0.9,2.6c0,1.3,0.1,2.7,0.2,4
		s0.2,2.7,0.2,4.1c0,0.6-0.2,1.1-0.4,1.6c-0.3,0.5-0.7,0.9-1.2,1c-0.6,0.1-1.4,0.3-2.3,0.5c-0.9,0.2-1.7,0.3-2.6,0.4
		c-0.9,0.1-1.7,0.2-2.5,0.3c-0.8,0.1-1.4,0.2-1.7,0.2c-0.8,0-1.4-0.2-1.8-0.4c-0.4-0.3-1-1-1.8-2.1c-0.5-0.7-0.8-1.3-1-1.8
		c-0.2-0.5-0.3-1.2-0.3-2c0-0.9,0.1-2.2,0.2-4s0.3-3.8,0.5-6.1c0.2-2.3,0.4-4.7,0.7-7.2c0.2-2.5,0.5-5,0.7-7.3
		c0.2-2.3,0.5-4.4,0.7-6.3c0.2-1.9,0.4-3.4,0.5-4.3c0-0.5,0.3-0.9,0.7-1.3c0.5-0.4,0.9-0.6,1.5-0.7c2.8-0.2,5.7-0.5,8.6-0.8
		c2.9-0.3,5.7-0.5,8.7-0.5c1.9,0,3.8,0.2,5.6,0.5c1.8,0.3,3.6,1,5.1,1.9c2,1.2,3.6,2.7,4.8,4.6c1.2,1.9,1.8,4,1.8,6.2
		c0,2.1-0.4,4-1.1,5.6c-0.7,1.6-1.7,2.9-2.8,4.1c-0.9,1-1.5,1.7-1.8,2.2c-0.3,0.5-0.5,0.9-0.5,1.5c0,0.5,0.1,1,0.3,1.6
		c0.2,0.6,0.6,1.7,1.2,3.2c1.4,3.3,2.9,6.3,4.6,9c0.2,0.4,0.4,0.7,0.5,1c0.1,0.3,0.1,0.7,0.1,1.1c0,0.1,0,0.3-0.1,0.5
		c0,0.2-0.2,0.4-0.3,0.6c-0.2,0.2-0.4,0.6-0.8,1s-0.9,0.9-1.5,1.5c-0.7,0.7-1.3,1.3-1.8,1.7s-1,0.7-1.5,0.9
		c-0.5,0.2-1.1,0.3-1.7,0.4c-0.6,0-1.5,0.1-2.5,0.1c-0.8,0-1.5,0-2.1-0.2c-0.6-0.1-1.2-0.4-1.6-0.8c-0.5-0.4-0.9-1-1.3-1.8
		s-0.8-1.9-1.2-3.3c-0.5-1.8-1-3.8-1.4-5.9c-0.4-2.1-0.9-4.2-1.4-6.3c-0.1-0.5-0.3-0.8-0.6-1.1C144.5,63.5,144,63.4,143.3,63.4
		L143.3,63.4z M139.3,50c0,1.7,0.1,2.8,0.4,3.4c0.2,0.6,0.9,0.9,2,0.9c0.2,0,0.6,0,1.2-0.1c0.6,0,1.2-0.1,1.8-0.2
		c0.6-0.1,1.2-0.2,1.8-0.2c0.5-0.1,0.9-0.1,1.1-0.2c0.8-0.2,1.4-0.6,1.8-1.3c0.4-0.7,0.6-1.4,0.6-2.3c0-1.2-0.4-2.1-1.2-2.6
		c-0.3-0.2-0.6-0.3-0.9-0.4c-0.3-0.1-0.7-0.2-1.2-0.2c-0.5,0-1.2-0.1-2.1-0.1c-0.8,0-1.9,0-3.2,0c-0.5,0-0.9,0.1-1.2,0.4
		c-0.3,0.2-0.5,0.5-0.7,0.9c-0.1,0.3-0.2,0.7-0.2,1.1C139.4,49.3,139.3,49.7,139.3,50L139.3,50z M101.3,63.4c-1.3,0-2.2,0.2-2.9,0.7
		c-0.6,0.5-0.9,1.3-0.9,2.6c0,1.3,0.1,2.7,0.2,4c0.1,1.4,0.2,2.7,0.2,4.1c0,0.6-0.2,1.1-0.4,1.6c-0.3,0.5-0.7,0.9-1.2,1
		c-0.6,0.1-1.4,0.3-2.3,0.5c-0.9,0.2-1.7,0.3-2.6,0.4c-0.9,0.1-1.7,0.2-2.5,0.3c-0.8,0.1-1.4,0.2-1.7,0.2c-0.8,0-1.4-0.2-1.8-0.4
		c-0.4-0.3-1-1-1.8-2.1c-0.5-0.7-0.8-1.3-1-1.8c-0.2-0.5-0.3-1.2-0.3-2c0-0.9,0.1-2.2,0.2-4c0.1-1.8,0.3-3.8,0.5-6.1
		c0.2-2.3,0.4-4.7,0.6-7.2c0.2-2.5,0.5-5,0.7-7.3c0.2-2.3,0.5-4.4,0.7-6.3c0.2-1.9,0.4-3.4,0.5-4.3c0-0.5,0.3-0.9,0.7-1.3
		s0.9-0.6,1.5-0.7c2.8-0.2,5.7-0.5,8.6-0.8c2.9-0.3,5.7-0.5,8.7-0.5c1.9,0,3.8,0.2,5.6,0.5c1.8,0.3,3.6,1,5.1,1.9
		c2,1.2,3.6,2.7,4.8,4.6c1.2,1.9,1.8,4,1.8,6.2c0,2.1-0.4,4-1.1,5.6c-0.7,1.6-1.7,2.9-2.8,4.1c-0.9,1-1.5,1.7-1.8,2.2
		c-0.3,0.5-0.5,0.9-0.5,1.5c0,0.5,0.1,1,0.3,1.6c0.2,0.6,0.6,1.7,1.2,3.2c1.4,3.3,2.9,6.3,4.6,9c0.2,0.4,0.4,0.7,0.5,1
		c0.1,0.3,0.1,0.7,0.1,1.1c0,0.1,0,0.3-0.1,0.5c0,0.2-0.2,0.4-0.3,0.6c-0.2,0.2-0.4,0.6-0.8,1c-0.4,0.4-0.9,0.9-1.5,1.5
		c-0.7,0.7-1.3,1.3-1.8,1.7c-0.5,0.4-1,0.7-1.5,0.9c-0.5,0.2-1.1,0.3-1.7,0.4c-0.6,0-1.5,0.1-2.5,0.1c-0.8,0-1.5,0-2.1-0.2
		c-0.6-0.1-1.2-0.4-1.6-0.8c-0.5-0.4-0.9-1-1.3-1.8s-0.8-1.9-1.2-3.3c-0.5-1.8-1-3.8-1.4-5.9c-0.4-2.1-0.9-4.2-1.4-6.3
		c-0.1-0.5-0.3-0.8-0.6-1.1C102.5,63.5,102,63.4,101.3,63.4L101.3,63.4z M97.3,50c0,1.7,0.1,2.8,0.4,3.4c0.2,0.6,0.9,0.9,2,0.9
		c0.2,0,0.6,0,1.2-0.1c0.6,0,1.2-0.1,1.8-0.2c0.6-0.1,1.2-0.2,1.8-0.2c0.5-0.1,0.9-0.1,1.1-0.2c0.8-0.2,1.4-0.6,1.8-1.3
		c0.4-0.7,0.6-1.4,0.6-2.3c0-1.2-0.4-2.1-1.2-2.6c-0.3-0.2-0.6-0.3-0.8-0.4c-0.3-0.1-0.7-0.2-1.3-0.2c-0.5,0-1.2-0.1-2.1-0.1
		c-0.8,0-1.9,0-3.2,0c-0.5,0-0.9,0.1-1.2,0.4c-0.3,0.2-0.5,0.5-0.7,0.9c-0.1,0.3-0.2,0.7-0.2,1.1C97.4,49.3,97.3,49.7,97.3,50
		L97.3,50z M45.5,77c0-0.8,0-2.1,0.1-3.7c0-1.6,0.1-3.5,0.2-5.7c0.1-2.2,0.2-4.6,0.3-7.1c0.1-2.5,0.2-5.1,0.4-7.8
		c0.1-2.6,0.2-5.2,0.3-7.8c0.1-2.5,0.2-4.9,0.3-7.1c0-0.4,0.2-0.9,0.5-1.2C48,36.2,48.5,36,49,36c2-0.2,4.1-0.3,6.5-0.5
		c2.4-0.2,4.7-0.4,7.1-0.5c2.4-0.2,4.7-0.3,6.9-0.4c2.2-0.1,4.1-0.2,5.7-0.2c0.6,0,1.1,0,1.5,0.1c0.4,0.1,0.7,0.2,1.1,0.5
		c0.3,0.2,0.6,0.6,1,1.1c0.4,0.5,0.8,1.1,1.3,1.8c0.3,0.5,0.5,1.1,0.5,1.6c0,0.7-0.2,1.6-0.6,2.8c-0.4,1.2-0.7,2.2-1,3
		c-0.2,0.7-0.6,1.2-1,1.6c-0.4,0.4-1,0.6-1.8,0.7l-13,1c-0.8,0.1-1.4,0.3-1.6,0.7c-0.3,0.4-0.4,0.9-0.4,1.7c0,1,0.1,1.7,0.4,2.1
		c0.3,0.4,0.8,0.7,1.5,0.8c0.8,0.1,1.9,0.2,3.1,0.2c1.2,0,2.5,0.1,3.8,0.1c1.3,0,2.5,0,3.6,0.1c1.1,0,2,0.1,2.7,0.1
		c1.1,0,2,0.5,2.5,1.2c0.5,0.8,0.8,1.6,0.8,2.6c0,0.4-0.1,0.8-0.2,1.1c-0.1,0.4-0.2,0.7-0.3,1.1c-0.3,0.8-0.7,1.4-1.2,1.6
		c-0.5,0.2-1.2,0.4-1.9,0.5c-1,0.1-2.1,0.2-3.3,0.2c-1.2,0-2.4,0.1-3.5,0.2c-1.1,0.1-2.2,0.1-3.2,0.2c-0.9,0-1.6,0.1-2.1,0.2
		c-0.8,0.1-1.4,0.4-1.7,0.8c-0.3,0.4-0.5,1.2-0.5,2.3c0,1.3,0.2,2.1,0.7,2.5c0.5,0.4,1.2,0.6,2.2,0.6c2.2,0,4.4-0.1,6.5-0.3
		c2.1-0.2,4.3-0.2,6.4-0.2c1,0,1.7,0.1,2.2,0.4c0.5,0.3,0.7,0.5,0.8,0.8c0.3,0.8,0.5,1.8,0.7,2.8c0.2,1,0.3,1.9,0.3,2.5
		c0,0.7-0.1,1.3-0.2,1.8c-0.2,0.5-0.6,1.2-1.4,2.3c-0.8,1.2-1.5,1.9-2.1,2.3c-0.5,0.3-1.3,0.5-2.2,0.6c-1.1,0.1-2.5,0.2-4.1,0.2
		c-1.6,0-3.4,0.1-5.4,0.1c-2,0-4.1,0.1-6.3,0.1c-2.2,0-4.5,0-6.9,0c-0.4,0-1.1-0.2-1.9-0.6s-1.6-0.9-2.5-1.5
		c-0.8-0.6-1.5-1.2-2.1-1.8C45.8,78.1,45.5,77.5,45.5,77L45.5,77z"/>
	<path class="st1" d="M195.9,116.2c-0.8,0-1.4,0-1.9,0c-0.5,0-0.9,0-1.2,0.1c-0.3,0-0.5,0.1-0.7,0.1c-0.2,0-0.3,0.1-0.5,0.2
		c-0.6,0.2-0.9,0.6-0.9,1.1l-1.3,5.8c-0.1,0.4-0.3,0.7-0.6,0.9c-0.3,0.2-0.8,0.4-1.4,0.6c-0.6,0.1-1.4,0.2-2.4,0.2c-1,0-2.2,0-3.6,0
		c-1.6,0-2.7-0.5-3.1-1.5l-1.8-4.1c-0.2-0.3-0.3-0.7-0.4-1c0-0.3,0-0.7,0.1-1.2l9.1-28.9c0.2-0.5,0.5-0.9,0.9-1.2
		c0.4-0.3,0.9-0.6,1.4-0.7c0.6-0.1,1.7-0.3,3.2-0.6c1.5-0.3,3.1-0.5,4.8-0.8c1.7-0.3,3.2-0.5,4.6-0.7c1.4-0.2,2.3-0.3,2.7-0.3
		c0.4,0,0.9,0.1,1.3,0.3c0.4,0.2,0.7,0.5,0.9,1.1l13.6,48.1c0.1,0.4,0.2,0.7,0.2,1c0,0.3,0.1,0.5,0.1,0.7c0,0.6-0.1,1.1-0.5,1.7
		c-0.3,0.6-0.7,1.1-1.2,1.6c-0.5,0.5-1.1,0.9-1.7,1.2c-0.6,0.3-1.2,0.5-1.8,0.5c-0.9,0-1.8-0.1-2.7-0.2c-0.9-0.1-1.8-0.3-2.7-0.4
		c-1.2-0.1-2-0.8-2.3-2l-5.5-19.3c-0.3-1.1-0.9-1.7-1.5-1.9C198.5,116.3,197.4,116.2,195.9,116.2L195.9,116.2z M120,127.3
		c-4,0-7.4-0.8-10.4-2.4c-3-1.6-5.3-3.8-6.9-6.5c-1.3-1.8-2.1-3.9-2.4-6.3c-0.3-2.4-0.5-4.8-0.5-7.3c0-3.4,0.7-6.3,2-8.9
		c1.3-2.6,3.1-4.7,5.3-6.4c2.2-1.7,4.8-3,7.6-3.9c2.9-0.9,5.9-1.3,9.1-1.3c1,0,1.9,0,2.6,0.1c0.7,0,1.3,0.1,1.8,0.2
		c0.5,0.1,0.9,0.2,1.2,0.4c0.3,0.2,0.6,0.4,0.9,0.7l2.5,2.8c0.5,0.6,0.8,1.2,0.8,1.9c0,0.3-0.2,0.8-0.5,1.4l-1.5,2.7
		c-0.5,0.9-1,1.4-1.7,1.6c-0.7,0.2-1.7,0.3-3,0.3c-0.7,0-1.3,0-1.8,0c-0.6,0-1.1,0-1.7,0c-1.7,0-3.2,0.2-4.6,0.6
		c-1.4,0.4-2.5,0.9-3.5,1.8c-1,0.8-1.7,1.9-2.3,3.2c-0.5,1.3-0.8,2.9-0.8,4.7c0,2.7,0.7,4.9,2.1,6.5c1.4,1.6,3.3,2.4,5.8,2.4
		c1.6,0,2.8-0.3,3.6-0.9c0.8-0.6,1.2-1.7,1.2-3.5c0-0.7-0.2-1.2-0.7-1.6c-0.5-0.4-0.9-0.7-1.5-0.9c-0.5-0.2-1-0.6-1.5-0.9
		c-0.5-0.3-0.7-0.9-0.7-1.5c0-0.6,0.2-1.4,0.6-2.4c0.3-0.8,0.7-1.5,1.3-1.9c0.5-0.5,1.5-0.7,2.8-0.7c0.4,0,1,0,2,0.1
		c0.9,0.1,1.9,0.2,2.9,0.2c1,0.1,2,0.2,2.9,0.2c0.9,0,1.6,0.1,2,0.2c0.8,0.1,1.3,0.4,1.4,0.9c0.2,0.5,0.2,1.1,0.2,1.7
		c0,0.5,0,1.5-0.1,2.9c-0.1,1.4-0.2,3-0.3,4.8c-0.1,1.8-0.3,3.7-0.5,5.7c-0.2,2-0.4,3.8-0.5,5.4c-0.1,0.4-0.3,0.8-0.7,1.2
		c-0.4,0.4-1.1,0.7-1.9,0.9c-2,0.6-4.1,1-6.1,1.4C124.5,127.1,122.3,127.3,120,127.3L120,127.3z M67,122.6c0-0.7,0-1.8,0.1-3.3
		c0-1.4,0.1-3.2,0.2-5.1c0.1-2,0.2-4.1,0.3-6.3c0.1-2.3,0.2-4.6,0.3-6.9c0.1-2.3,0.2-4.6,0.3-6.9c0.1-2.3,0.2-4.3,0.2-6.3
		c0-0.4,0.2-0.8,0.5-1.1c0.3-0.3,0.7-0.5,1.2-0.6c1.7-0.1,3.7-0.3,5.7-0.5c2.1-0.2,4.2-0.3,6.3-0.5c2.1-0.1,4.1-0.2,6.1-0.4
		c2-0.1,3.7-0.2,5.1-0.2c0.5,0,0.9,0,1.3,0.1c0.4,0.1,0.7,0.2,0.9,0.4c0.3,0.2,0.6,0.5,0.9,0.9c0.3,0.4,0.7,1,1.2,1.7
		c0.3,0.5,0.5,0.9,0.5,1.4c0,0.6-0.2,1.4-0.5,2.5c-0.3,1.1-0.7,2-0.9,2.7c-0.2,0.6-0.5,1.1-0.9,1.4c-0.4,0.3-0.9,0.5-1.7,0.6
		l-11.5,0.9c-0.7,0.1-1.2,0.3-1.5,0.6c-0.2,0.3-0.4,0.8-0.4,1.5c0,0.9,0.1,1.5,0.4,1.9c0.2,0.4,0.7,0.6,1.3,0.7
		c0.7,0.1,1.7,0.2,2.8,0.2c1.1,0,2.2,0,3.3,0c1.1,0,2.2,0,3.2,0.1c1,0,1.8,0.1,2.4,0.1c1.1,0,1.8,0.4,2.3,1.1
		c0.5,0.7,0.7,1.4,0.7,2.3c0,0.4,0,0.7-0.2,1c-0.1,0.3-0.2,0.7-0.3,1c-0.3,0.7-0.6,1.2-1.1,1.4c-0.5,0.2-1,0.4-1.7,0.5
		c-0.9,0.1-1.9,0.2-3,0.2c-1.1,0-2.1,0.1-3.1,0.2s-2,0.1-2.8,0.2c-0.9,0-1.5,0.1-1.8,0.1c-0.7,0.1-1.2,0.3-1.5,0.7
		c-0.3,0.4-0.4,1.1-0.4,2c0,1.1,0.2,1.8,0.7,2.2c0.4,0.3,1.1,0.5,2,0.5c1.9,0,3.9-0.1,5.7-0.2c1.9-0.2,3.8-0.2,5.7-0.2
		c0.9,0,1.5,0.1,1.9,0.4c0.4,0.2,0.7,0.5,0.7,0.7c0.3,0.7,0.5,1.6,0.7,2.5c0.2,0.9,0.3,1.7,0.3,2.3c0,0.6-0.1,1.1-0.2,1.6
		c-0.2,0.4-0.6,1.1-1.2,2c-0.7,1-1.3,1.7-1.8,2c-0.5,0.3-1.1,0.5-2,0.5c-1,0.1-2.2,0.2-3.7,0.2c-1.5,0-3.1,0.1-4.8,0.1
		c-1.8,0-3.6,0.1-5.6,0.1s-4,0-6.1,0c-0.4,0-0.9-0.2-1.7-0.6c-0.7-0.4-1.5-0.8-2.2-1.3c-0.7-0.5-1.3-1.1-1.8-1.6
		C67.3,123.6,67,123.1,67,122.6L67,122.6z M38.6,118.6c-1.1,0.2-1.7,0.9-1.8,2.2l-2,17.1c-0.1,1-0.4,1.8-1.1,2.2
		c-0.6,0.5-1.8,1-3.4,1.6c-0.9,0.3-1.5,0.5-1.9,0.7c-0.4,0.1-0.9,0.2-1.4,0.3c-0.6,0.1-1.1,0.1-1.4,0c-0.4-0.1-0.9-0.3-1.7-0.7
		c-0.5-0.3-0.9-0.7-1.3-1.1c-0.4-0.5-0.5-0.9-0.5-1.4c0-0.3,0.1-0.9,0.2-1.8c0.1-0.9,0.2-2.5,0.5-4.8c0.2-2.3,1.2-18.2,1.6-22.2
		c0.4-4.1,0.3-7,1.1-13.6c0.1-0.7,0.5-1.4,1.1-2c0.6-0.6,1.9-1.4,3.8-2.3c1.8-0.9,3-1.4,3.6-1.5c0.5-0.1,0.9,0,1.4,0.2
		c0.5,0.2,0.9,0.7,1.6,1.5l10.3,10.8c0,0,0.2,0.2,0.4,0.4c0.2,0.2,0.5,0.4,0.7,0.5c0.2,0.1,0.4,0.1,0.7,0.1c0.4,0,0.7-0.2,1-0.5
		c0.3-0.3,0.5-0.6,0.5-1c0-0.7,0.1-1.6,0.2-2.7c0.1-1.1,0.2-2.2,0.3-3.4c0.1-1.2,0.2-1.7,0.4-2.9c0.1-1.2,0.2-2.3,0.4-3.3
		c0.1-0.6,0.4-1.1,0.8-1.5c0.5-0.4,1.5-1,3-1.8c0.9-0.5,1.6-0.8,2.1-1c0.5-0.2,0.8-0.3,1.2-0.3c0.6-0.1,1.1-0.1,1.4,0.1
		s0.8,0.5,1.3,0.9c0.7,0.5,1.1,1,1.3,1.4c0.2,0.4,0.3,0.8,0.3,1.3c0,0.4-0.1,1.4-0.2,3c-0.1,1.6-0.2,3-0.4,5.4
		c-0.2,2.4-0.3,5-0.5,7.8c-0.2,2.8-0.4,5.5-0.6,8.2c-0.2,2.7-0.4,3.2-0.5,5.4c-0.2,2.2-0.3,3.9-0.4,5.1c-0.1,0.7-0.4,1.2-0.9,1.6
		c-0.5,0.4-1.2,0.8-1.9,1.1c-0.6,0.3-1.2,0.6-1.8,0.9c-0.6,0.2-1.2,0.4-1.8,0.5c-0.3,0-0.8,0.1-1.4,0.1c-0.6,0-1.2-0.1-1.8-0.2
		c-0.6-0.1-1.2-0.3-1.7-0.5c-0.5-0.2-0.9-0.5-1.2-0.8l-8-8C39.7,118.8,39.3,118.5,38.6,118.6L38.6,118.6z M156.6,111.2
		c-1.1,0-2,0.2-2.6,0.7c-0.6,0.4-0.9,1.2-0.9,2.3c0,1.2,0.1,2.4,0.2,3.7c0.1,1.2,0.2,2.5,0.2,3.7c0,0.5-0.1,1-0.4,1.5
		c-0.3,0.5-0.6,0.8-1.1,0.9c-0.6,0.1-1.2,0.3-2.1,0.4c-0.8,0.2-1.6,0.3-2.4,0.4c-0.8,0.1-1.6,0.2-2.3,0.3c-0.7,0.1-1.2,0.1-1.6,0.1
		c-0.7,0-1.3-0.1-1.7-0.4c-0.4-0.2-0.9-0.9-1.6-1.9c-0.5-0.6-0.7-1.1-0.9-1.6c-0.2-0.5-0.2-1.1-0.2-1.8c0-0.8,0-2,0.2-3.6
		c0.1-1.6,0.2-3.5,0.4-5.6c0.2-2.1,0.4-4.3,0.6-6.6c0.2-2.3,0.4-4.5,0.6-6.6c0.2-2.1,0.4-4.1,0.6-5.8c0.2-1.7,0.3-3,0.5-3.9
		c0-0.5,0.2-0.9,0.7-1.2c0.4-0.3,0.9-0.5,1.3-0.6c2.6-0.2,5.2-0.5,7.8-0.7c2.6-0.3,5.2-0.4,7.9-0.4c1.7,0,3.4,0.2,5.1,0.5
		c1.7,0.3,3.2,0.9,4.7,1.8c1.8,1.1,3.3,2.5,4.3,4.2c1.1,1.7,1.6,3.7,1.6,5.7c0,1.9-0.3,3.6-1,5c-0.7,1.4-1.5,2.7-2.5,3.8
		c-0.8,0.9-1.4,1.6-1.7,2c-0.3,0.4-0.4,0.9-0.4,1.3c0,0.4,0.1,0.9,0.2,1.5c0.2,0.6,0.5,1.6,1.1,2.9c1.3,3,2.7,5.7,4.2,8.2
		c0.2,0.3,0.4,0.7,0.4,0.9c0.1,0.3,0.1,0.6,0.1,1c0,0.1,0,0.3,0,0.4c0,0.2-0.2,0.3-0.3,0.5c-0.2,0.2-0.4,0.5-0.8,0.9
		c-0.3,0.4-0.8,0.8-1.4,1.4c-0.7,0.7-1.2,1.2-1.6,1.6s-0.9,0.7-1.3,0.9c-0.5,0.2-1,0.3-1.6,0.3c-0.6,0-1.4,0.1-2.3,0.1
		c-0.7,0-1.4-0.1-2-0.2c-0.6-0.1-1.1-0.4-1.5-0.7c-0.4-0.4-0.8-0.9-1.2-1.6c-0.3-0.7-0.7-1.8-1.1-3.1c-0.5-1.6-0.9-3.4-1.2-5.4
		c-0.4-1.9-0.8-3.9-1.3-5.8c-0.1-0.4-0.3-0.8-0.5-1C157.6,111.3,157.2,111.2,156.6,111.2z M152.9,99c0,1.5,0.1,2.5,0.4,3
		c0.2,0.5,0.9,0.8,1.8,0.8c0.2,0,0.6,0,1.1-0.1c0.5,0,1.1-0.1,1.7-0.2c0.6-0.1,1.1-0.1,1.6-0.2c0.5-0.1,0.8-0.1,1-0.2
		c0.7-0.2,1.3-0.6,1.7-1.2s0.6-1.3,0.6-2.1c0-1.1-0.4-1.9-1.1-2.4c-0.3-0.2-0.5-0.3-0.8-0.4c-0.2-0.1-0.6-0.1-1.1-0.2
		c-0.5,0-1.1-0.1-1.9-0.1c-0.8,0-1.8,0-3,0c-0.5,0-0.8,0.1-1.1,0.3c-0.3,0.2-0.5,0.5-0.6,0.8c-0.1,0.3-0.2,0.6-0.2,1
		C153,98.4,152.9,98.7,152.9,99L152.9,99z M192.4,104.6c0,1,0.3,1.6,0.9,1.7c0.6,0.2,1.3,0.3,2,0.3c1.4,0,2.4-0.1,3-0.4
		c0.6-0.3,0.9-0.9,0.7-1.9c0-0.2,0-0.6-0.1-1c-0.1-0.4-0.2-0.9-0.3-1.4c-0.1-0.5-0.2-1-0.4-1.4c-0.1-0.5-0.2-0.9-0.3-1.3
		c-0.2-0.4-0.4-0.7-0.8-0.9c-0.4-0.2-0.7-0.2-1-0.2c-0.9,0-1.6,0.2-2.1,0.7c-0.5,0.5-0.9,1.1-1,1.8c-0.2,0.7-0.3,1.4-0.5,2.1
		C192.5,103.5,192.4,104.1,192.4,104.6L192.4,104.6z"/>
	<path class="st0" d="M151.4,145.5c0-0.4,0-0.9,0-1.6c0-0.7,0.1-1.4,0.1-2.3c0-0.8,0.1-1.7,0.1-2.6c0.1-0.9,0.1-1.8,0.1-2.6
		c0-0.4,0.2-0.5,0.4-0.6c0.2,0,0.5,0,0.8-0.1c0.3,0,0.7-0.1,1.1-0.2c0.4,0,0.8-0.1,1.1-0.2c0.4,0,0.8-0.1,1.1-0.1
		c0.4,0,0.7-0.1,0.9-0.1c0.3,0,0.5,0,0.6,0c1,0,1.8,0.4,2.6,1.1c0.7,0.7,1,1.7,1,2.9c0,0.5,0,0.9-0.1,1.4c0,0.5-0.2,0.9-0.3,1.2
		c-0.2,0.4-0.4,0.7-0.7,0.9c-0.2,0.3-0.6,0.5-1,0.6c-0.2,0-0.4,0.1-0.6,0.1c-0.3,0-0.5,0.1-0.9,0.1c-0.3,0-0.7,0.1-1,0.1
		c-0.3,0-0.7,0.1-0.9,0.1c-0.2,0-0.4,0.1-0.4,0.2c-0.1,0.1-0.1,0.2-0.1,0.4c0,0.1,0,0.2,0,0.3c0,0.2,0,0.3,0,0.5c0,0.2,0,0.3,0,0.4
		c0,0.1,0,0.2,0,0.3c0,0.3-0.1,0.5-0.4,0.6c-0.2,0.1-0.4,0.1-0.6,0.2c-0.2,0.1-0.5,0.1-0.7,0.2c-0.2,0.1-0.5,0.1-0.7,0.1
		c-0.2,0-0.4,0.1-0.5,0.1c-0.1,0-0.2,0-0.4-0.1c-0.2,0-0.3-0.2-0.5-0.3c-0.2-0.1-0.3-0.3-0.4-0.5C151.4,146,151.4,145.8,151.4,145.5
		L151.4,145.5z M135,147.6c-0.2,0-0.3,0-0.4-0.1c-0.1,0-0.2-0.1-0.2-0.2c-0.1-0.1-0.2-0.3-0.3-0.5c-0.1-0.2-0.1-0.4-0.2-0.5
		c0-0.2,0-0.4,0-0.7c0-0.2,0.1-0.5,0.2-0.7c0-0.2,0.2-0.2,0.3-0.3c0.2-0.1,0.3-0.1,0.5-0.2c0.2,0,0.4-0.1,0.6-0.1
		c0.2,0,0.4-0.1,0.6-0.2c0.2-0.1,0.5-0.3,0.6-0.6c0.2-0.3,0.2-0.5,0.2-0.8c0-1.3-1-1.4-1.6-3c-0.1-0.3-0.2-0.7-0.2-1.1
		c0-0.6,0.1-1.1,0.4-1.7c0.3-0.5,0.7-0.9,1.2-1.3c0.4-0.2,0.8-0.4,1.3-0.5s1-0.2,1.4-0.2c0.2,0,0.5,0,0.7,0c0.2,0,0.4,0,0.5,0
		c0.1,0,0.2,0.1,0.3,0.2c0.1,0.1,0.2,0.2,0.3,0.4c0.1,0.1,0.2,0.3,0.2,0.4c0,0.1,0.1,0.2,0.1,0.3c0,0.1,0,0.2,0,0.3
		c0,0.1,0,0.3-0.1,0.4c0,0.1,0,0.2-0.1,0.4c0,0.1-0.1,0.2-0.1,0.2c-0.2,0.2-0.5,0.2-0.7,0.2c-0.3,0-0.5,0-0.8,0.1
		c-0.3,0.1-0.5,0.2-0.7,0.3c-0.2,0.1-0.2,0.3-0.2,0.6c0,1.2,1.2,0.9,1.6,2.8c0.1,0.4,0.1,0.9,0.2,1.4c0,0.7-0.1,1.3-0.3,1.9
		c-0.2,0.6-0.7,1.1-1.2,1.6c-0.5,0.4-0.9,0.7-1.5,0.8c-0.6,0.2-1.2,0.3-1.8,0.3c-0.2,0-0.4,0-0.6,0
		C135.3,147.6,135.1,147.6,135,147.6L135,147.6z M143.7,141.2c0-0.1,0-0.1,0-0.2c0-0.1,0-0.1,0-0.2c0-0.1,0-0.2,0.1-0.4
		c0-0.2,0.1-0.4,0.2-0.6c0-0.2,0.1-0.3,0.2-0.4c0.1-0.1,0.2-0.1,0.3-0.1c0.2,0,0.5,0,0.8,0c0.3,0,0.6,0,0.9,0c0.3,0,0.5,0,0.8,0
		c0.2,0,0.4,0,0.5,0c0.3,0,0.6,0.1,0.8,0.4c0.2,0.2,0.3,0.5,0.3,0.8c0,0.1,0,0.1,0,0.2c0,0.1,0,0.2-0.1,0.4c0,0.1-0.1,0.3-0.1,0.4
		c0,0.1-0.1,0.3-0.1,0.4c0,0.1-0.1,0.2-0.2,0.3c-0.1,0.1-0.2,0.1-0.3,0.2c-0.2,0-0.4,0-0.6,0.1c-0.3,0-0.5,0-0.8,0
		c-0.3,0-0.5,0-0.8,0c-0.2,0-0.4,0-0.5,0c-0.3,0-0.5,0-0.7-0.1c-0.2-0.1-0.3-0.2-0.4-0.4c-0.1-0.2-0.2-0.3-0.2-0.4
		C143.7,141.4,143.7,141.3,143.7,141.2L143.7,141.2z M128.6,147.6c-0.8,0-1.5-0.1-2.1-0.4s-1.1-0.7-1.5-1.2c-0.4-0.5-0.7-1.1-1-1.7
		c-0.2-0.7-0.4-1.4-0.5-2.1c-0.1-1-0.1-1.9,0.1-2.7c0.2-0.8,0.5-1.5,1-2.1c0.5-0.6,1-1.1,1.7-1.4c0.7-0.3,1.4-0.5,2.3-0.5
		c0.9,0,1.8,0.1,2.4,0.4c0.7,0.3,1.2,0.7,1.6,1.1c0.4,0.5,0.7,1.1,0.9,1.8c0.2,0.7,0.3,1.5,0.3,2.4c0,1-0.1,1.9-0.3,2.7
		s-0.5,1.4-0.9,2c-0.5,0.5-1,1-1.7,1.3C130.4,147.4,129.6,147.6,128.6,147.6L128.6,147.6z M126.9,141.3c0,0.3,0,0.6,0.1,0.9
		c0.1,0.3,0.2,0.6,0.4,0.9c0.2,0.2,0.4,0.5,0.6,0.6c0.2,0.2,0.5,0.2,0.9,0.2c0.3,0,0.6-0.1,0.8-0.2c0.2-0.2,0.4-0.4,0.5-0.6
		c0.2-0.2,0.3-0.5,0.3-0.8c0.1-0.3,0.1-0.6,0.1-0.9c0-0.3,0-0.6-0.1-0.9c-0.1-0.3-0.2-0.6-0.3-0.9c-0.1-0.2-0.3-0.5-0.5-0.6
		c-0.2-0.2-0.5-0.2-0.8-0.2c-0.4,0-0.7,0.1-0.9,0.2c-0.2,0.1-0.5,0.3-0.6,0.6s-0.3,0.5-0.4,0.8S126.9,140.9,126.9,141.3z
		 M117.9,142.9c-0.3,0-0.6,0-0.7,0.2c-0.2,0.1-0.2,0.3-0.2,0.6c0,0.3,0,0.7,0,1c0,0.4,0.1,0.7,0.1,1c0,0.2,0,0.3-0.1,0.4
		c-0.1,0.1-0.2,0.2-0.3,0.2c-0.2,0-0.3,0.1-0.6,0.1c-0.2,0-0.5,0.1-0.7,0.1c-0.2,0-0.5,0-0.6,0.1c-0.2,0-0.4,0-0.5,0
		c-0.2,0-0.4,0-0.5-0.1c-0.1-0.1-0.2-0.2-0.5-0.5c-0.1-0.2-0.2-0.3-0.2-0.5s-0.1-0.3-0.1-0.5c0-0.2,0-0.6,0-1c0-0.5,0.1-1,0.1-1.6
		c0-0.6,0.1-1.2,0.2-1.8c0.1-0.6,0.1-1.2,0.2-1.8c0.1-0.6,0.1-1.1,0.2-1.6c0-0.5,0.1-0.8,0.1-1.1c0-0.1,0.1-0.2,0.2-0.3
		c0.1-0.1,0.2-0.2,0.4-0.2c0.7,0,1.4-0.1,2.2-0.2c0.7-0.1,1.5-0.1,2.2-0.1c0.5,0,0.9,0,1.4,0.1c0.5,0.1,0.9,0.2,1.3,0.5
		c0.5,0.3,0.9,0.7,1.2,1.2s0.5,1,0.5,1.6c0,0.5-0.1,1-0.3,1.4c-0.2,0.4-0.4,0.7-0.7,1c-0.2,0.2-0.4,0.4-0.5,0.5
		c-0.1,0.1-0.1,0.2-0.1,0.4c0,0.1,0,0.2,0.1,0.4c0,0.2,0.1,0.4,0.3,0.8c0.4,0.8,0.7,1.6,1.2,2.3c0.1,0.1,0.1,0.2,0.1,0.3
		c0,0.1,0,0.2,0,0.3c0,0,0,0.1,0,0.1c0,0,0,0.1-0.1,0.2c0,0.1-0.1,0.1-0.2,0.2c-0.1,0.1-0.2,0.2-0.4,0.4c-0.2,0.2-0.3,0.3-0.5,0.4
		c-0.1,0.1-0.2,0.2-0.4,0.2c-0.1,0-0.3,0.1-0.4,0.1c-0.2,0-0.4,0-0.7,0c-0.2,0-0.4,0-0.5,0c-0.2,0-0.3-0.1-0.4-0.2
		c-0.1-0.1-0.2-0.3-0.3-0.5c-0.1-0.2-0.2-0.5-0.3-0.8c-0.1-0.5-0.2-0.9-0.3-1.5c-0.1-0.5-0.2-1.1-0.4-1.6c0-0.1-0.1-0.2-0.2-0.3
		C118.2,142.9,118.1,142.9,117.9,142.9L117.9,142.9z M116.9,139.5c0,0.4,0,0.7,0.1,0.9c0.1,0.1,0.2,0.2,0.5,0.2c0.1,0,0.2,0,0.3,0
		c0.1,0,0.3,0,0.5,0c0.2,0,0.3,0,0.5-0.1c0.1,0,0.2,0,0.3,0c0.2,0,0.4-0.2,0.5-0.3c0.1-0.2,0.2-0.4,0.2-0.6c0-0.3-0.1-0.5-0.3-0.7
		c-0.1,0-0.1-0.1-0.2-0.1c-0.1,0-0.2,0-0.3,0c-0.1,0-0.3,0-0.5,0c-0.2,0-0.5,0-0.8,0c-0.1,0-0.2,0-0.3,0.1c-0.1,0.1-0.1,0.1-0.2,0.2
		c0,0.1,0,0.2,0,0.3C116.9,139.3,116.9,139.4,116.9,139.5L116.9,139.5z M107.1,142.9c-0.3,0-0.6,0-0.7,0.2c-0.2,0.1-0.2,0.3-0.2,0.6
		c0,0.3,0,0.7,0.1,1c0,0.4,0,0.7,0,1c0,0.2,0,0.3-0.1,0.4c-0.1,0.1-0.2,0.2-0.3,0.2c-0.2,0-0.4,0.1-0.6,0.1c-0.2,0-0.5,0.1-0.7,0.1
		c-0.2,0-0.4,0-0.6,0.1c-0.2,0-0.3,0-0.4,0c-0.2,0-0.4,0-0.5-0.1c-0.1-0.1-0.3-0.2-0.5-0.5c-0.1-0.2-0.2-0.3-0.2-0.5
		c0-0.1-0.1-0.3-0.1-0.5c0-0.2,0-0.6,0-1c0-0.5,0.1-1,0.1-1.6c0-0.6,0.1-1.2,0.2-1.8c0-0.6,0.1-1.2,0.2-1.8c0-0.6,0.1-1.1,0.2-1.6
		c0-0.5,0.1-0.8,0.1-1.1c0-0.1,0.1-0.2,0.2-0.3s0.2-0.2,0.4-0.2c0.7,0,1.4-0.1,2.2-0.2c0.7-0.1,1.4-0.1,2.2-0.1c0.5,0,0.9,0,1.4,0.1
		c0.5,0.1,0.9,0.2,1.3,0.5c0.5,0.3,0.9,0.7,1.2,1.2c0.3,0.5,0.5,1,0.5,1.6c0,0.5-0.1,1-0.3,1.4c-0.2,0.4-0.4,0.7-0.7,1
		c-0.2,0.2-0.4,0.4-0.5,0.5c-0.1,0.1-0.1,0.2-0.1,0.4c0,0.1,0,0.2,0.1,0.4s0.2,0.4,0.3,0.8c0.3,0.8,0.7,1.6,1.2,2.3
		c0,0.1,0.1,0.2,0.1,0.3c0,0.1,0,0.2,0,0.3c0,0,0,0.1,0,0.1c0,0,0,0.1-0.1,0.2c0,0.1-0.1,0.1-0.2,0.2c-0.1,0.1-0.2,0.2-0.4,0.4
		c-0.2,0.2-0.3,0.3-0.5,0.4c-0.1,0.1-0.2,0.2-0.4,0.2c-0.1,0-0.3,0.1-0.4,0.1c-0.2,0-0.4,0-0.6,0c-0.2,0-0.4,0-0.5,0
		c-0.2,0-0.3-0.1-0.4-0.2c-0.1-0.1-0.2-0.3-0.3-0.5c-0.1-0.2-0.2-0.5-0.3-0.8c-0.1-0.5-0.2-0.9-0.3-1.5c-0.1-0.5-0.2-1.1-0.4-1.6
		c0-0.1-0.1-0.2-0.2-0.3C107.4,142.9,107.3,142.9,107.1,142.9L107.1,142.9z M106.1,139.5c0,0.4,0,0.7,0.1,0.9
		c0.1,0.1,0.2,0.2,0.5,0.2c0.1,0,0.2,0,0.3,0c0.2,0,0.3,0,0.5,0s0.3,0,0.5-0.1c0.1,0,0.2,0,0.3,0c0.2,0,0.4-0.2,0.5-0.3
		c0.1-0.2,0.2-0.4,0.2-0.6c0-0.3-0.1-0.5-0.3-0.7c-0.1,0-0.1-0.1-0.2-0.1c-0.1,0-0.2,0-0.3,0c-0.1,0-0.3,0-0.5,0c-0.2,0-0.5,0-0.8,0
		c-0.1,0-0.2,0-0.3,0.1c-0.1,0.1-0.1,0.1-0.2,0.2c0,0.1-0.1,0.2-0.1,0.3C106.1,139.3,106.1,139.4,106.1,139.5L106.1,139.5z
		 M92.8,146c0-0.2,0-0.5,0-0.9c0-0.4,0-0.9,0.1-1.4s0-1.1,0.1-1.7c0-0.6,0.1-1.3,0.1-1.9c0-0.7,0.1-1.3,0.1-1.9c0-0.6,0-1.2,0.1-1.8
		c0-0.1,0-0.2,0.1-0.3c0.1-0.1,0.2-0.2,0.3-0.2c0.5,0,1-0.1,1.6-0.1c0.6,0,1.1-0.1,1.7-0.1c0.6,0,1.2-0.1,1.7-0.1c0.5,0,1,0,1.4,0
		c0.1,0,0.2,0,0.4,0c0.1,0,0.2,0.1,0.2,0.1c0.1,0.1,0.2,0.2,0.2,0.3c0.1,0.1,0.2,0.3,0.3,0.5c0.1,0.1,0.1,0.3,0.1,0.4
		c0,0.2,0,0.4-0.1,0.7c-0.1,0.3-0.2,0.5-0.3,0.7c0,0.2-0.1,0.3-0.2,0.4c-0.1,0.1-0.3,0.1-0.5,0.2l-3.2,0.2c-0.2,0-0.3,0.1-0.4,0.2
		c-0.1,0.1-0.1,0.2-0.1,0.4c0,0.2,0,0.4,0.1,0.5c0.1,0.1,0.2,0.2,0.4,0.2c0.2,0,0.5,0,0.8,0c0.3,0,0.6,0,0.9,0c0.3,0,0.6,0,0.9,0
		c0.3,0,0.5,0,0.7,0c0.3,0,0.5,0.1,0.6,0.3c0.1,0.2,0.2,0.4,0.2,0.6c0,0.1,0,0.2,0,0.3c0,0.1,0,0.2-0.1,0.3
		c-0.1,0.2-0.2,0.3-0.3,0.4c-0.1,0-0.3,0.1-0.5,0.1c-0.2,0-0.5,0-0.8,0.1c-0.3,0-0.6,0-0.9,0c-0.3,0-0.5,0-0.8,0c-0.2,0-0.4,0-0.5,0
		c-0.2,0-0.3,0.1-0.4,0.2c-0.1,0.1-0.1,0.3-0.1,0.6c0,0.3,0.1,0.5,0.2,0.6c0.1,0.1,0.3,0.1,0.5,0.1c0.5,0,1.1,0,1.6-0.1
		c0.5,0,1,0,1.6,0c0.2,0,0.4,0,0.5,0.1c0.1,0.1,0.2,0.1,0.2,0.2c0.1,0.2,0.1,0.5,0.2,0.7c0,0.2,0.1,0.5,0.1,0.6c0,0.2,0,0.3-0.1,0.5
		c0,0.1-0.2,0.3-0.3,0.5c-0.2,0.3-0.4,0.5-0.5,0.6c-0.1,0.1-0.3,0.1-0.5,0.2c-0.3,0-0.6,0-1,0c-0.4,0-0.9,0-1.3,0c-0.5,0-1,0-1.6,0
		c-0.5,0-1.1,0-1.7,0c-0.1,0-0.2,0-0.5-0.1c-0.2-0.1-0.4-0.2-0.6-0.4c-0.2-0.1-0.4-0.3-0.5-0.5C92.8,146.3,92.8,146.2,92.8,146
		L92.8,146z M84,147.3c-0.2,0-0.5-0.1-0.6-0.2c-0.2-0.2-0.4-0.3-0.5-0.6c-0.1-0.2-0.2-0.5-0.3-0.7c-0.1-0.2-0.1-0.5-0.1-0.7
		c0-0.2,0-0.3,0-0.4s0.1-0.2,0.2-0.3c0.6-0.7,1.2-1.5,1.8-2.3c0.7-0.8,1.3-1.6,2-2.4c0.1-0.1,0.2-0.3,0.2-0.4c0-0.1,0-0.1-0.1-0.2
		c-0.1-0.1-0.2-0.1-0.3-0.1s-0.3,0-0.6,0c-0.3,0-0.5,0-0.8,0c-0.3,0-0.5,0-0.8,0.1c-0.2,0-0.5,0-0.6,0c-0.3,0-0.5,0-0.6-0.1
		c-0.1-0.1-0.2-0.3-0.3-0.7c-0.1-0.2-0.2-0.4-0.2-0.5c0-0.1,0-0.2,0-0.3c0,0,0-0.1,0-0.2c0-0.1,0.1-0.3,0.1-0.5
		c0.1-0.2,0.2-0.3,0.3-0.5c0.1-0.1,0.3-0.2,0.5-0.2c0.5,0,1.1-0.1,1.8-0.1c0.7,0,1.4,0,2-0.1c0.7,0,1.3,0,1.8,0c0.5,0,0.9,0,1.1,0
		c0.2,0,0.3,0,0.5,0c0.2,0,0.3,0.1,0.5,0.2c0.2,0.2,0.4,0.4,0.5,0.7c0.1,0.2,0.1,0.5,0.1,0.8c0,0.2-0.1,0.5-0.3,0.8
		c-0.2,0.3-0.5,0.7-0.8,1.1c-0.3,0.4-0.6,0.9-0.9,1.3c-0.3,0.4-0.6,0.9-0.9,1.3c-0.3,0.4-0.5,0.7-0.7,1c-0.1,0.1-0.1,0.2-0.2,0.2
		s0,0.1,0,0.2c0,0.1,0,0.2,0.1,0.3c0.1,0,0.2,0.1,0.3,0.1c0.5,0,0.9,0,1.3-0.1c0.4,0,0.8-0.1,1.2-0.1c0.3,0,0.5,0,0.6,0.1
		c0.1,0.1,0.2,0.3,0.3,0.5c0.1,0.2,0.2,0.4,0.2,0.5c0,0.1,0,0.2,0,0.3c0,0.1,0,0.3,0,0.4c0,0.1-0.1,0.3-0.1,0.5
		c-0.1,0.3-0.2,0.6-0.2,0.7c-0.1,0.2-0.2,0.3-0.5,0.3c-0.2,0-0.4,0-0.8,0c-0.4,0-0.8,0-1.3,0.1s-1,0-1.5,0.1c-0.5,0-1,0-1.5,0.1
		c-0.5,0-0.9,0-1.2,0C84.4,147.3,84.2,147.3,84,147.3L84,147.3z M72.9,146c0-0.2,0-0.5,0-0.9c0-0.4,0-0.9,0.1-1.4
		c0-0.5,0-1.1,0.1-1.7c0-0.6,0.1-1.3,0.1-1.9c0-0.7,0.1-1.3,0.1-1.9c0-0.6,0-1.2,0.1-1.8c0-0.1,0-0.2,0.1-0.3
		c0.1-0.1,0.2-0.2,0.3-0.2c0.5,0,1-0.1,1.6-0.1c0.6,0,1.1-0.1,1.7-0.1c0.6,0,1.1-0.1,1.7-0.1c0.5,0,1,0,1.4,0c0.1,0,0.2,0,0.4,0
		c0.1,0,0.2,0.1,0.2,0.1c0.1,0.1,0.2,0.2,0.2,0.3c0.1,0.1,0.2,0.3,0.3,0.5c0.1,0.1,0.1,0.3,0.1,0.4c0,0.2,0,0.4-0.1,0.7
		c-0.1,0.3-0.2,0.5-0.3,0.7c0,0.2-0.1,0.3-0.2,0.4c-0.1,0.1-0.3,0.1-0.5,0.2l-3.2,0.2c-0.2,0-0.3,0.1-0.4,0.2s-0.1,0.2-0.1,0.4
		c0,0.2,0,0.4,0.1,0.5c0.1,0.1,0.2,0.2,0.4,0.2c0.2,0,0.5,0,0.8,0c0.3,0,0.6,0,0.9,0c0.3,0,0.6,0,0.9,0c0.3,0,0.5,0,0.7,0
		c0.3,0,0.5,0.1,0.6,0.3c0.1,0.2,0.2,0.4,0.2,0.6c0,0.1,0,0.2,0,0.3c0,0.1-0.1,0.2-0.1,0.3c-0.1,0.2-0.2,0.3-0.3,0.4
		c-0.1,0-0.3,0.1-0.5,0.1c-0.2,0-0.5,0-0.8,0.1c-0.3,0-0.6,0-0.9,0c-0.3,0-0.5,0-0.8,0c-0.2,0-0.4,0-0.5,0c-0.2,0-0.3,0.1-0.4,0.2
		c-0.1,0.1-0.1,0.3-0.1,0.6c0,0.3,0.1,0.5,0.2,0.6c0.1,0.1,0.3,0.1,0.5,0.1c0.5,0,1.1,0,1.6-0.1c0.5,0,1,0,1.6,0
		c0.2,0,0.4,0,0.5,0.1s0.2,0.1,0.2,0.2c0.1,0.2,0.1,0.5,0.2,0.7c0,0.2,0.1,0.5,0.1,0.6c0,0.2,0,0.3-0.1,0.5c0,0.1-0.2,0.3-0.3,0.5
		c-0.2,0.3-0.4,0.5-0.5,0.6c-0.1,0.1-0.3,0.1-0.5,0.2c-0.3,0-0.6,0-1,0c-0.4,0-0.9,0-1.3,0c-0.5,0-1,0-1.6,0c-0.5,0-1.1,0-1.7,0
		c-0.1,0-0.2,0-0.5-0.1c-0.2-0.1-0.4-0.2-0.6-0.4c-0.2-0.1-0.4-0.3-0.5-0.5C73,146.3,72.9,146.2,72.9,146L72.9,146z M62,146.2
		c0-0.2,0-0.5,0-0.9c0-0.4,0-0.9,0-1.4c0-0.5,0-1.1,0.1-1.8c0-0.6,0.1-1.3,0.1-1.9c0-0.6,0-1.2,0.1-1.8c0-0.6,0-1.1,0.1-1.5
		c0-0.5,0.3-0.7,0.7-0.7c0.7-0.1,1.4-0.1,2.3-0.2c0.9-0.1,1.7-0.1,2.6-0.2c0.1,0,0.3,0,0.4,0c0.1,0,0.2,0,0.3,0
		c0.5,0,0.9,0.1,1.3,0.2c0.4,0.1,0.7,0.3,1,0.5c0.3,0.2,0.5,0.6,0.7,0.9c0.2,0.4,0.2,0.8,0.2,1.2c0,0.2,0,0.4,0,0.5
		c0,0.1,0,0.3,0,0.4c0,0.1,0,0.2-0.1,0.3c0,0.1,0,0.2-0.1,0.3c0,0.2-0.1,0.3-0.2,0.5c-0.1,0.1-0.2,0.3-0.5,0.6
		c-0.2,0.2-0.3,0.3-0.4,0.4c-0.1,0.1-0.2,0.1-0.2,0.2c0,0-0.1,0.1-0.1,0.1c0,0,0,0.1,0,0.2c0,0.1,0.1,0.2,0.2,0.4
		c0.2,0.2,0.3,0.4,0.5,0.5c0.2,0.2,0.3,0.5,0.4,0.8c0.1,0.3,0.1,0.7,0.1,1.2c0,0.8-0.2,1.5-0.7,2c-0.5,0.5-1.2,0.8-2,0.8
		c-0.4,0-0.8,0-1.4,0c-0.5,0-1.1,0-1.6,0c-0.5,0-1,0-1.5,0c-0.5,0-0.8,0-1,0c-0.1,0-0.2-0.1-0.4-0.2c-0.2-0.1-0.3-0.2-0.5-0.4
		c-0.2-0.2-0.3-0.3-0.4-0.5C62.1,146.4,62,146.3,62,146.2L62,146.2z M65.6,143.7c0,0.3,0,0.5,0.1,0.7c0.1,0.2,0.3,0.2,0.7,0.2
		c0.7,0,1.2-0.1,1.6-0.2c0.3-0.2,0.5-0.4,0.5-0.9c0-0.3-0.1-0.5-0.3-0.7c-0.2-0.2-0.4-0.2-0.7-0.2c-0.5,0-0.9,0-1.1,0
		c-0.2,0-0.4,0-0.5,0.1c-0.1,0.1-0.2,0.2-0.2,0.3C65.6,143.2,65.6,143.4,65.6,143.7z M65.6,139.7c0,0.3,0,0.5,0,0.7
		c0,0.2,0.1,0.3,0.2,0.4c0.1,0.1,0.2,0.1,0.4,0.2c0.2,0,0.5,0,0.8,0c0.5,0,0.9-0.1,1.1-0.2c0.2-0.2,0.3-0.5,0.3-0.8
		c0-0.4-0.1-0.7-0.4-0.8c-0.2-0.1-0.5-0.2-0.9-0.2c-0.3,0-0.5,0-0.8,0c-0.2,0-0.4,0-0.5,0.1c-0.2,0-0.2,0.1-0.3,0.2
		C65.6,139.3,65.6,139.5,65.6,139.7L65.6,139.7z M155.2,140.7c0.1,0.3,0.2,0.5,0.5,0.5c0,0,0.1,0,0.3,0c0.2,0,0.3,0,0.5-0.1
		c0.2,0,0.4,0,0.5-0.1c0.2,0,0.3-0.1,0.4-0.1c0.2-0.1,0.4-0.3,0.5-0.5c0.1-0.2,0.1-0.5,0.1-0.8c0-0.4-0.1-0.8-0.3-1
		c-0.2-0.2-0.6-0.4-1.1-0.4c-0.5,0-0.8,0-1.1,0.1c-0.3,0.1-0.4,0.2-0.4,0.4c0,0.3,0,0.6,0,0.8s0,0.4,0,0.5c0,0.2,0,0.3,0,0.4
		C155.2,140.4,155.2,140.5,155.2,140.7L155.2,140.7z M162.2,145.8c0-0.2,0-0.5,0-0.9c0-0.4,0-0.9,0-1.4c0-0.5,0.1-1.1,0.1-1.7
		c0-0.6,0.1-1.3,0.1-1.9c0-0.7,0-1.3,0.1-1.9c0-0.6,0.1-1.2,0.1-1.7c0-0.1,0-0.2,0.1-0.3c0.1-0.1,0.2-0.1,0.3-0.2
		c0.5,0,1-0.1,1.6-0.1c0.6-0.1,1.2-0.1,1.8-0.1c0.6,0,1.1-0.1,1.7-0.1c0.5,0,1,0,1.4,0c0.2,0,0.3,0,0.4,0c0.1,0,0.2,0,0.3,0.1
		c0.1,0.1,0.2,0.1,0.2,0.3c0.1,0.1,0.2,0.2,0.3,0.5c0.1,0.1,0.1,0.2,0.1,0.4c0,0.2,0,0.4-0.1,0.7c-0.1,0.3-0.2,0.5-0.2,0.7
		c-0.1,0.2-0.1,0.3-0.2,0.4c-0.1,0.1-0.2,0.1-0.5,0.2l-3.2,0.2c-0.2,0-0.3,0.1-0.4,0.2c-0.1,0.1-0.1,0.2-0.1,0.4
		c0,0.2,0,0.4,0.1,0.5c0.1,0.1,0.2,0.2,0.4,0.2c0.2,0,0.5,0,0.8,0c0.3,0,0.6,0,0.9,0c0.3,0,0.6,0,0.9,0c0.3,0,0.5,0,0.7,0
		c0.3,0,0.5,0.1,0.6,0.3c0.1,0.2,0.2,0.4,0.2,0.6c0,0.1,0,0.2,0,0.3c0,0.1-0.1,0.2-0.1,0.3c-0.1,0.2-0.2,0.3-0.3,0.4
		c-0.1,0.1-0.3,0.1-0.5,0.1c-0.3,0-0.5,0-0.8,0c-0.3,0-0.6,0-0.9,0c-0.3,0-0.5,0-0.8,0c-0.2,0-0.4,0-0.5,0c-0.2,0-0.3,0.1-0.4,0.2
		c-0.1,0.1-0.1,0.3-0.1,0.5c0,0.3,0.1,0.5,0.2,0.6c0.1,0.1,0.3,0.1,0.5,0.1c0.5,0,1.1,0,1.6-0.1c0.5,0,1.1-0.1,1.6-0.1
		c0.2,0,0.4,0,0.5,0.1c0.1,0.1,0.2,0.1,0.2,0.2c0.1,0.2,0.1,0.4,0.2,0.7c0,0.2,0.1,0.5,0.1,0.6c0,0.2,0,0.3-0.1,0.4
		c0,0.1-0.1,0.3-0.3,0.6c-0.2,0.3-0.4,0.5-0.5,0.6c-0.1,0.1-0.3,0.1-0.5,0.1c-0.3,0-0.6,0-1,0.1c-0.4,0-0.8,0-1.3,0
		c-0.5,0-1,0-1.5,0c-0.6,0-1.1,0-1.7,0c-0.1,0-0.3,0-0.5-0.2c-0.2-0.1-0.4-0.2-0.6-0.4c-0.2-0.1-0.4-0.3-0.5-0.5
		C162.3,146,162.2,145.9,162.2,145.8L162.2,145.8z"/>
	<path class="st0" d="M153.4,24c0-0.4,0-0.7,0.1-0.9c0-0.2,0.2-0.4,0.4-0.6l5.2-4.3c0.2-0.2,0.3-0.4,0.3-0.7c0-0.2,0-0.3-0.2-0.5
		c-0.1-0.2-0.3-0.2-0.5-0.2c-0.1,0-0.4,0-0.7,0c-0.4,0-0.8,0-1.2,0.1c-0.4,0-0.8,0-1.1,0.1c-0.3,0-0.5,0-0.6,0c-0.1,0-0.2,0-0.3,0
		c-0.1,0-0.2,0-0.2-0.1s-0.1-0.2-0.2-0.3c-0.1-0.2-0.2-0.4-0.3-0.6c-0.1-0.3-0.2-0.5-0.2-0.6c0-0.1,0-0.2,0-0.4c0,0,0-0.2,0.1-0.4
		c0-0.2,0.1-0.4,0.3-0.6c0.1-0.2,0.3-0.4,0.5-0.6c0.2-0.2,0.5-0.3,0.8-0.3c0.3-0.1,0.7-0.1,1.1-0.1c0.4,0,0.9-0.1,1.3-0.1
		c0.5,0,0.9,0,1.3,0c0.4,0,0.8,0,1.1,0c0.3,0,0.7,0,0.9,0.1c0.3,0,0.5,0.1,0.8,0.2c0.2,0.1,0.5,0.2,0.7,0.4c0.2,0.2,0.5,0.4,0.8,0.6
		c0.2,0.2,0.4,0.5,0.6,0.7c0.2,0.2,0.3,0.4,0.4,0.6c0.1,0.2,0.2,0.4,0.2,0.7c0,0.2,0,0.5,0,0.8c0,0.5-0.1,1-0.3,1.6
		c-0.2,0.5-0.6,1-1.3,1.5l-2.6,1.9c-0.1,0-0.1,0.1-0.2,0.2c0,0.1-0.1,0.1-0.1,0.2c0,0.2,0.1,0.3,0.4,0.3l3.2,0.1
		c0.1,0,0.3,0.1,0.4,0.2c0.1,0.1,0.3,0.3,0.4,0.4c0.1,0.2,0.2,0.3,0.3,0.5c0.1,0.2,0.1,0.4,0.1,0.5c0,0,0,0.1,0,0.3
		c0,0.1-0.1,0.3-0.1,0.4c0,0.2-0.1,0.4-0.1,0.5c-0.1,0.2-0.1,0.3-0.2,0.5c-0.1,0.2-0.2,0.4-0.3,0.5c-0.2,0.1-0.3,0.2-0.6,0.2
		c-0.1,0-0.3,0-0.6,0c-0.4,0-0.8,0-1.3,0c-0.5,0-1,0-1.6,0s-1.2,0-1.8,0c-0.6,0-1.1,0-1.6,0c-0.5,0-0.9,0-1.2,0
		c-0.4,0-0.7-0.1-0.9-0.3c-0.2-0.2-0.4-0.5-0.6-0.8c-0.1-0.3-0.2-0.6-0.3-0.9C153.5,24.5,153.4,24.2,153.4,24L153.4,24z"/>
	<path class="st0" d="M166.8,27.2c0-0.2,0-0.3,0-0.5s0.1-0.4,0.1-0.6c0.1-0.2,0.1-0.3,0.2-0.5c0.1-0.1,0.2-0.2,0.3-0.2
		c0.6-0.2,1.1-0.4,1.7-0.6s1.1-0.5,1.6-0.7c0.4-0.2,0.7-0.5,1-0.7c0.2-0.2,0.3-0.5,0.3-0.9c0-0.3-0.1-0.5-0.3-0.7
		c-0.2-0.2-0.4-0.3-0.7-0.3c-0.2,0-0.5,0-0.8,0c-0.3,0-0.6,0-0.9,0.1c-0.3,0-0.5,0-0.8,0.1c-0.2,0-0.4,0-0.5,0
		c-0.3,0-0.6-0.1-0.7-0.4c-0.2-0.2-0.3-0.5-0.3-0.8c0-0.2,0-0.3,0-0.4c0-0.2,0.1-0.3,0.2-0.4l2-1.8c0.1-0.1,0.1-0.2,0.1-0.3
		c0-0.1,0-0.2-0.1-0.2c-0.1,0-0.2-0.1-0.3-0.1h-2.1c-0.2,0-0.4-0.1-0.5-0.3c-0.1-0.2-0.3-0.4-0.4-0.7c-0.1-0.2-0.2-0.5-0.2-0.7
		c0-0.2-0.1-0.3-0.1-0.3c0-0.1,0-0.3,0.1-0.5c0.1-0.2,0.2-0.3,0.4-0.5c0.2-0.1,0.3-0.3,0.5-0.4c0.2-0.1,0.4-0.2,0.5-0.2h6.1
		c0.1,0,0.2,0.1,0.4,0.2c0.2,0.1,0.3,0.2,0.5,0.4c0.2,0.2,0.3,0.3,0.4,0.5c0.1,0.2,0.2,0.4,0.2,0.6c0,0.1,0,0.3-0.1,0.5
		c0,0.2-0.1,0.4-0.2,0.6c0,0.1,0,0.2-0.1,0.2c-0.1,0.1-0.2,0.2-0.3,0.3l-1.4,1.1c-0.1,0.1-0.2,0.2-0.2,0.4c0,0.1,0,0.2,0.1,0.2
		c0.1,0,0.2,0.1,0.3,0.1c0.9,0.1,1.5,0.4,2,0.9c0.5,0.5,0.7,1.1,0.7,1.8c0,0.9-0.2,1.7-0.5,2.5c-0.3,0.8-0.8,1.5-1.5,2.2
		c-0.4,0.3-0.8,0.6-1.2,0.9c-0.5,0.2-0.9,0.5-1.4,0.7c-0.5,0.2-1,0.3-1.5,0.4c-0.5,0.1-1,0.1-1.5,0.1c-0.2,0-0.3,0-0.5-0.1
		c-0.2,0-0.4-0.1-0.5-0.2c-0.2-0.1-0.3-0.2-0.4-0.4C166.9,27.6,166.8,27.4,166.8,27.2L166.8,27.2z"/>
</g>
<image style="overflow:visible;enable-background:new    ;" width="759" height="757" xlink:href="AF2DDE4.png"  transform="matrix(4.757144e-02 0 0 4.757144e-02 168.9829 7.2219)">
</image>
<path class="st0" d="M128.4,25.4c0-0.4,0-0.7,0.1-0.9c0-0.2,0.2-0.4,0.4-0.6l5.2-4.3c0.2-0.2,0.3-0.4,0.3-0.7c0-0.2-0.1-0.3-0.2-0.5
	c-0.1-0.2-0.3-0.2-0.5-0.2c-0.1,0-0.4,0-0.7,0c-0.4,0-0.8,0.1-1.2,0.1c-0.4,0-0.8,0-1.1,0.1c-0.4,0-0.5,0-0.6,0c-0.2,0-0.3,0-0.4,0
	c-0.1,0-0.2,0-0.2-0.1s-0.2-0.2-0.2-0.3c-0.1-0.1-0.2-0.4-0.3-0.6c-0.1-0.3-0.2-0.5-0.3-0.6c0-0.1,0-0.2,0-0.4c0-0.1,0-0.2,0.1-0.4
	c0-0.2,0.1-0.4,0.3-0.6c0.1-0.2,0.3-0.4,0.5-0.6c0.2-0.2,0.5-0.3,0.8-0.3c0.3,0,0.7-0.1,1.1-0.1c0.4,0,0.9-0.1,1.3-0.1
	c0.5,0,0.9,0,1.3,0s0.8,0,1.1,0c0.3,0,0.6,0,0.9,0.1c0.3,0.1,0.5,0.1,0.8,0.2c0.2,0.1,0.5,0.2,0.7,0.4c0.2,0.2,0.5,0.4,0.8,0.6
	c0.2,0.2,0.4,0.5,0.6,0.7c0.2,0.2,0.3,0.4,0.4,0.6c0.1,0.2,0.2,0.4,0.2,0.7c0,0.2,0,0.5,0,0.8c0,0.5-0.1,1.1-0.3,1.6
	c-0.2,0.5-0.6,1-1.3,1.5l-2.6,1.9c-0.1,0-0.1,0.1-0.2,0.2c0,0.1-0.1,0.1-0.1,0.2c0,0.2,0.1,0.3,0.4,0.3l3.2,0.1
	c0.1,0,0.3,0.1,0.4,0.2s0.3,0.2,0.4,0.4c0.1,0.2,0.2,0.3,0.3,0.5c0.1,0.2,0.1,0.3,0.1,0.5c0,0,0,0.1,0,0.3c0,0.1-0.1,0.3-0.1,0.4
	c0,0.2-0.1,0.3-0.2,0.5c0,0.2-0.1,0.3-0.2,0.5c-0.1,0.2-0.2,0.4-0.3,0.5c-0.1,0.2-0.3,0.2-0.5,0.3c-0.1,0-0.3,0-0.7,0
	c-0.4,0-0.8,0-1.3,0c-0.5,0-1,0-1.6,0c-0.6,0-1.2,0-1.7,0c-0.6,0-1.1,0-1.6,0c-0.5,0-0.9,0-1.1,0c-0.4,0-0.7-0.1-0.9-0.4
	c-0.2-0.2-0.5-0.5-0.6-0.8c-0.2-0.3-0.2-0.6-0.3-0.9C128.5,25.9,128.4,25.6,128.4,25.4L128.4,25.4z"/>
<path class="st0" d="M146.8,29.4c-0.5,0-0.9,0-1.4,0c-0.5,0-0.9,0-1.4-0.1c-0.4-0.1-0.8-0.2-1.2-0.4c-0.4-0.2-0.7-0.4-1-0.7
	c-0.6-0.7-1.1-1.4-1.3-2.1c-0.3-0.8-0.4-1.6-0.5-2.6c-0.1-1-0.1-1.8-0.1-2.5c0-0.7,0-1.3,0.1-1.8c0.1-0.5,0.2-1,0.4-1.4
	c0.2-0.4,0.4-0.8,0.7-1.1c0.5-0.6,1-1,1.6-1.2c0.6-0.2,1.5-0.4,2.6-0.5c1.3-0.1,2.3,0,3.1,0.1c0.8,0.2,1.4,0.4,1.8,0.7
	c0.4,0.3,0.7,0.6,1,1c0.3,0.4,0.5,0.9,0.7,1.4c0.2,0.5,0.3,1,0.5,1.6c0.1,0.6,0.2,1.2,0.2,1.8c0,0.6,0,1.1,0,1.7s0,1.1-0.2,1.6
	c-0.1,0.5-0.3,1-0.5,1.5c-0.2,0.5-0.5,0.9-0.9,1.4c-0.5,0.6-1.1,1-1.9,1.2C148.5,29.3,147.7,29.4,146.8,29.4L146.8,29.4z
	 M144.4,22.1c0,0.4,0.1,0.8,0.1,1.2c0,0.5,0.2,0.9,0.3,1.3c0.2,0.4,0.4,0.7,0.7,1c0.3,0.3,0.7,0.4,1.2,0.4c0.4,0,0.7-0.2,1-0.4
	c0.2-0.2,0.4-0.5,0.5-0.9c0.1-0.4,0.2-0.8,0.2-1.3c0-0.5,0-0.9,0-1.4c0-0.5-0.1-1-0.2-1.4c-0.1-0.4-0.2-0.8-0.4-1.1
	c-0.2-0.3-0.4-0.5-0.7-0.7c-0.3-0.2-0.7-0.2-1.1-0.2c-0.4,0-0.7,0.1-1,0.3c-0.2,0.2-0.4,0.4-0.5,0.7s-0.2,0.7-0.2,1.1
	C144.3,21.1,144.3,21.6,144.4,22.1L144.4,22.1z"/>
<path class="st0" d="M153.4,24c0-0.4,0-0.7,0.1-0.9c0-0.2,0.2-0.4,0.4-0.6l5.2-4.3c0.2-0.2,0.3-0.4,0.3-0.7c0-0.2,0-0.3-0.2-0.5
	c-0.1-0.2-0.3-0.2-0.5-0.2c-0.1,0-0.4,0-0.7,0c-0.4,0-0.8,0-1.2,0.1c-0.4,0-0.8,0-1.1,0.1c-0.3,0-0.5,0-0.6,0c-0.1,0-0.2,0-0.3,0
	c-0.1,0-0.2,0-0.2-0.1c-0.1-0.1-0.1-0.2-0.2-0.3c-0.1-0.2-0.2-0.4-0.3-0.6c-0.1-0.3-0.2-0.5-0.2-0.6c0-0.1,0-0.2,0-0.4
	c0,0,0-0.2,0.1-0.4c0-0.2,0.1-0.4,0.3-0.6c0.1-0.2,0.3-0.4,0.5-0.6c0.2-0.2,0.5-0.3,0.8-0.3c0.3-0.1,0.7-0.1,1.1-0.1
	c0.4,0,0.9-0.1,1.3-0.1c0.5,0,0.9,0,1.3,0s0.8,0,1.1,0c0.3,0,0.7,0,0.9,0.1c0.3,0,0.5,0.1,0.8,0.2c0.2,0.1,0.5,0.2,0.7,0.4
	c0.2,0.2,0.5,0.4,0.8,0.6c0.2,0.2,0.4,0.5,0.6,0.7c0.2,0.2,0.3,0.4,0.4,0.6c0.1,0.2,0.2,0.4,0.2,0.7c0,0.2,0,0.5,0,0.8
	c0,0.5-0.1,1-0.3,1.6s-0.6,1-1.3,1.5l-2.6,1.9c-0.1,0-0.1,0.1-0.2,0.2c0,0.1-0.1,0.1-0.1,0.2c0,0.2,0.1,0.3,0.4,0.3l3.2,0.1
	c0.1,0,0.3,0.1,0.4,0.2c0.1,0.1,0.3,0.3,0.4,0.4c0.1,0.2,0.2,0.3,0.3,0.5c0.1,0.2,0.1,0.4,0.1,0.5c0,0,0,0.1,0,0.3
	c0,0.1-0.1,0.3-0.1,0.4c0,0.2-0.1,0.4-0.1,0.5c-0.1,0.2-0.1,0.3-0.2,0.5c-0.1,0.2-0.2,0.4-0.3,0.5c-0.2,0.1-0.3,0.2-0.6,0.2
	c-0.1,0-0.3,0-0.6,0c-0.4,0-0.8,0-1.3,0s-1,0-1.6,0s-1.2,0-1.8,0c-0.6,0-1.1,0-1.6,0c-0.5,0-0.9,0-1.2,0c-0.4,0-0.7-0.1-0.9-0.3
	c-0.2-0.2-0.4-0.5-0.6-0.8c-0.1-0.3-0.2-0.6-0.3-0.9C153.4,24.4,153.4,24.2,153.4,24L153.4,24z"/>
<path class="st0" d="M166.8,27.1c0-0.2,0-0.3,0-0.5s0.1-0.4,0.1-0.6c0.1-0.2,0.1-0.3,0.2-0.5c0.1-0.1,0.2-0.2,0.3-0.2
	c0.6-0.2,1.1-0.4,1.7-0.6s1.1-0.5,1.6-0.7c0.4-0.2,0.7-0.5,1-0.7c0.2-0.2,0.3-0.5,0.3-0.9c0-0.3-0.1-0.5-0.3-0.7
	c-0.2-0.2-0.4-0.3-0.7-0.3c-0.2,0-0.5,0-0.8,0c-0.3,0-0.6,0-0.9,0.1c-0.3,0-0.5,0-0.8,0.1c-0.2,0-0.4,0-0.5,0
	c-0.3,0-0.6-0.1-0.7-0.4c-0.2-0.2-0.3-0.5-0.3-0.8c0-0.2,0-0.3,0-0.4c0-0.2,0.1-0.3,0.2-0.4l2-1.8c0.1-0.1,0.1-0.2,0.1-0.3
	c0-0.1,0-0.2-0.1-0.2c-0.1,0-0.2-0.1-0.3-0.1H167c-0.2,0-0.4-0.1-0.5-0.3c-0.1-0.2-0.3-0.4-0.4-0.7s-0.2-0.5-0.2-0.7
	c0-0.2-0.1-0.3-0.1-0.3c0-0.1,0-0.3,0.1-0.5c0.1-0.2,0.2-0.3,0.4-0.5c0.2-0.1,0.3-0.3,0.5-0.4c0.2-0.1,0.4-0.2,0.5-0.2h6.1
	c0.1,0,0.2,0.1,0.4,0.2c0.2,0.1,0.3,0.2,0.5,0.4c0.2,0.2,0.3,0.3,0.4,0.5c0.1,0.2,0.2,0.4,0.2,0.6c0,0.1,0,0.3-0.1,0.5
	c0,0.2-0.1,0.4-0.2,0.6c0,0.1,0,0.2-0.1,0.2c-0.1,0.1-0.2,0.2-0.3,0.3l-1.4,1.1c-0.1,0.1-0.2,0.2-0.2,0.4c0,0.1,0,0.2,0.1,0.2
	c0.1,0,0.2,0.1,0.3,0.1c0.9,0.1,1.5,0.4,2,0.9c0.5,0.5,0.7,1.1,0.7,1.8c0,0.9-0.2,1.7-0.5,2.5c-0.3,0.8-0.8,1.5-1.5,2.2
	c-0.4,0.3-0.8,0.6-1.2,0.9c-0.5,0.2-0.9,0.5-1.4,0.7c-0.5,0.2-1,0.3-1.5,0.4c-0.5,0.1-1,0.1-1.5,0.1c-0.2,0-0.3,0-0.5-0.1
	c-0.2,0-0.4-0.1-0.5-0.2c-0.2-0.1-0.3-0.2-0.4-0.4C166.8,27.6,166.8,27.4,166.8,27.1L166.8,27.1z"/>
</svg>
